%FSLAX45Y45*%
G04 Gerber Fmt 4.5, Leading zero omitted, Abs format (unit mm)*
G04 Created by KiCad (PCBNEW (6.0.6)) date 2022-07-12 20:30:33*
%MOMM*%
%LPD*%
G01*
G04 APERTURE LIST*
%TA.AperFunction,Profile*%
%ADD10C,0.100000*%
%TD*%
%ADD11C,0.200000*%
%ADD12C,0.040000*%
%ADD13C,0.100000*%
G04 APERTURE END LIST*
D10*
X17531080Y-7112000D02*
X12705080Y-7112000D01*
X17785080Y-7366000D02*
G75*
G03*
X17531080Y-7112000I-254000J0D01*
G01*
X12451080Y-7366000D02*
X12451080Y-10416540D01*
X17785080Y-7366000D02*
X17785080Y-10414000D01*
X17531080Y-10668000D02*
G75*
G03*
X17785080Y-10414000I0J254000D01*
G01*
X12705080Y-10668000D02*
X17531080Y-10668000D01*
X12451083Y-10416540D02*
G75*
G03*
X12705080Y-10668000I253997J2550D01*
G01*
X12705080Y-7112000D02*
G75*
G03*
X12451080Y-7366000I0J-254000D01*
G01*
D11*
D12*
X13556300Y-8600760D02*
X13596300Y-8640760D01*
X13596300Y-8600760D02*
X13556300Y-8640760D01*
X13561380Y-9037640D02*
X13601380Y-9077640D01*
X13601380Y-9037640D02*
X13561380Y-9077640D01*
X13899200Y-9850230D02*
X13939200Y-9890230D01*
X13939200Y-9850230D02*
X13899200Y-9890230D01*
X13985560Y-10185720D02*
X14025560Y-10225720D01*
X14025560Y-10185720D02*
X13985560Y-10225720D01*
X14234480Y-10188260D02*
X14274480Y-10228260D01*
X14274480Y-10188260D02*
X14234480Y-10228260D01*
X14239560Y-8849680D02*
X14279560Y-8889680D01*
X14279560Y-8849680D02*
X14239560Y-8889680D01*
X14305942Y-9919362D02*
X14345942Y-9959362D01*
X14345942Y-9919362D02*
X14305942Y-9959362D01*
X14496100Y-9418640D02*
X14536100Y-9458640D01*
X14536100Y-9418640D02*
X14496100Y-9458640D01*
X14518960Y-10188260D02*
X14558960Y-10228260D01*
X14558960Y-10188260D02*
X14518960Y-10228260D01*
X14693878Y-10119338D02*
X14733878Y-10159338D01*
X14733878Y-10119338D02*
X14693878Y-10159338D01*
X14700151Y-9299760D02*
X14740151Y-9339760D01*
X14740151Y-9299760D02*
X14700151Y-9339760D01*
X14724700Y-8082600D02*
X14764700Y-8122600D01*
X14764700Y-8082600D02*
X14724700Y-8122600D01*
X14767880Y-8765860D02*
X14807880Y-8805860D01*
X14807880Y-8765860D02*
X14767880Y-8805860D01*
X14796162Y-9327542D02*
X14836162Y-9367542D01*
X14836162Y-9327542D02*
X14796162Y-9367542D01*
X14986320Y-9243380D02*
X15026320Y-9283380D01*
X15026320Y-9243380D02*
X14986320Y-9283380D01*
X15085380Y-9560880D02*
X15125380Y-9600880D01*
X15125380Y-9560880D02*
X15085380Y-9600880D01*
X15100620Y-8290880D02*
X15140620Y-8330880D01*
X15140620Y-8290880D02*
X15100620Y-8330880D01*
X15153960Y-10127250D02*
X15193960Y-10167250D01*
X15193960Y-10127250D02*
X15153960Y-10167250D01*
X15174280Y-7705430D02*
X15214280Y-7745430D01*
X15214280Y-7705430D02*
X15174280Y-7745430D01*
X15202220Y-8585520D02*
X15242220Y-8625520D01*
X15242220Y-8585520D02*
X15202220Y-8625520D01*
X15301280Y-7937820D02*
X15341280Y-7977820D01*
X15341280Y-7937820D02*
X15301280Y-7977820D01*
X15380160Y-9747686D02*
X15420160Y-9787686D01*
X15420160Y-9747686D02*
X15380160Y-9787686D01*
X15385100Y-8102920D02*
X15425100Y-8142920D01*
X15425100Y-8102920D02*
X15385100Y-8142920D01*
X15413040Y-8948740D02*
X15453040Y-8988740D01*
X15453040Y-8948740D02*
X15413040Y-8988740D01*
X15429892Y-9615832D02*
X15469892Y-9655832D01*
X15469892Y-9615832D02*
X15429892Y-9655832D01*
X15562900Y-9118920D02*
X15602900Y-9158920D01*
X15602900Y-9118920D02*
X15562900Y-9158920D01*
X15578687Y-9256627D02*
X15618687Y-9296627D01*
X15618687Y-9256627D02*
X15578687Y-9296627D01*
X15601000Y-7577140D02*
X15641000Y-7617140D01*
X15641000Y-7577140D02*
X15601000Y-7617140D01*
X15616582Y-9589162D02*
X15656582Y-9629162D01*
X15656582Y-9589162D02*
X15616582Y-9629162D01*
X15679905Y-8329030D02*
X15719905Y-8369030D01*
X15719905Y-8329030D02*
X15679905Y-8369030D01*
X15702600Y-8834440D02*
X15742600Y-8874440D01*
X15742600Y-8834440D02*
X15702600Y-8874440D01*
X15751202Y-9528202D02*
X15791202Y-9568202D01*
X15791202Y-9528202D02*
X15751202Y-9568202D01*
X15772699Y-8366171D02*
X15812699Y-8406171D01*
X15812699Y-8366171D02*
X15772699Y-8406171D01*
X15795401Y-8797319D02*
X15835401Y-8837319D01*
X15835401Y-8797319D02*
X15795401Y-8837319D01*
X15810786Y-8458580D02*
X15850786Y-8498580D01*
X15850786Y-8458580D02*
X15810786Y-8498580D01*
X15907617Y-7802477D02*
X15947617Y-7842477D01*
X15947617Y-7802477D02*
X15907617Y-7842477D01*
X15960068Y-8668850D02*
X16000068Y-8708850D01*
X16000068Y-8668850D02*
X15960068Y-8708850D01*
X16075980Y-7810820D02*
X16115980Y-7850820D01*
X16115980Y-7810820D02*
X16075980Y-7850820D01*
X16159458Y-7920382D02*
X16199458Y-7960382D01*
X16199458Y-7920382D02*
X16159458Y-7960382D01*
X16191678Y-8870378D02*
X16231678Y-8910378D01*
X16231678Y-8870378D02*
X16191678Y-8910378D01*
X16197992Y-8349300D02*
X16237992Y-8389300D01*
X16237992Y-8349300D02*
X16197992Y-8389300D01*
X16250124Y-8515770D02*
X16290124Y-8555770D01*
X16290124Y-8515770D02*
X16250124Y-8555770D01*
X16264088Y-8747453D02*
X16304088Y-8787453D01*
X16304088Y-8747453D02*
X16264088Y-8787453D01*
X16368422Y-7742582D02*
X16408422Y-7782582D01*
X16408422Y-7742582D02*
X16368422Y-7782582D01*
X16556040Y-8774351D02*
X16596040Y-8814351D01*
X16596040Y-8774351D02*
X16556040Y-8814351D01*
X16639481Y-8849301D02*
X16679481Y-8889301D01*
X16679481Y-8849301D02*
X16639481Y-8889301D01*
X16670340Y-9047800D02*
X16710340Y-9087800D01*
X16710340Y-9047800D02*
X16670340Y-9087800D01*
X16695740Y-8372160D02*
X16735740Y-8412160D01*
X16735740Y-8372160D02*
X16695740Y-8412160D01*
X16705900Y-8666800D02*
X16745900Y-8706800D01*
X16745900Y-8666800D02*
X16705900Y-8706800D01*
X17023400Y-8260400D02*
X17063400Y-8300400D01*
X17063400Y-8260400D02*
X17023400Y-8300400D01*
X17024120Y-8953820D02*
X17064120Y-8993820D01*
X17064120Y-8953820D02*
X17024120Y-8993820D01*
X17282480Y-9035100D02*
X17322480Y-9075100D01*
X17322480Y-9035100D02*
X17282480Y-9075100D01*
X17437420Y-7859080D02*
X17477420Y-7899080D01*
X17477420Y-7859080D02*
X17437420Y-7899080D01*
D13*
X12706820Y-8017280D02*
G75*
G03*
X12706820Y-8017280I-50000J0D01*
G01*
X12706820Y-8271280D02*
G75*
G03*
X12706820Y-8271280I-50000J0D01*
G01*
X12706820Y-8525280D02*
G75*
G03*
X12706820Y-8525280I-50000J0D01*
G01*
X12706820Y-8779280D02*
G75*
G03*
X12706820Y-8779280I-50000J0D01*
G01*
X12706820Y-9033280D02*
G75*
G03*
X12706820Y-9033280I-50000J0D01*
G01*
X12706820Y-9287280D02*
G75*
G03*
X12706820Y-9287280I-50000J0D01*
G01*
X12706820Y-9541280D02*
G75*
G03*
X12706820Y-9541280I-50000J0D01*
G01*
X12706820Y-9795280D02*
G75*
G03*
X12706820Y-9795280I-50000J0D01*
G01*
X13235140Y-10426700D02*
G75*
G03*
X13235140Y-10426700I-50000J0D01*
G01*
X13265620Y-7335520D02*
G75*
G03*
X13265620Y-7335520I-50000J0D01*
G01*
X13489140Y-10426700D02*
G75*
G03*
X13489140Y-10426700I-50000J0D01*
G01*
X13519620Y-7335520D02*
G75*
G03*
X13519620Y-7335520I-50000J0D01*
G01*
X13743140Y-10426700D02*
G75*
G03*
X13743140Y-10426700I-50000J0D01*
G01*
X13773620Y-7335520D02*
G75*
G03*
X13773620Y-7335520I-50000J0D01*
G01*
X13997140Y-10426700D02*
G75*
G03*
X13997140Y-10426700I-50000J0D01*
G01*
X14027620Y-7335520D02*
G75*
G03*
X14027620Y-7335520I-50000J0D01*
G01*
X14251140Y-10426700D02*
G75*
G03*
X14251140Y-10426700I-50000J0D01*
G01*
X14281620Y-7335520D02*
G75*
G03*
X14281620Y-7335520I-50000J0D01*
G01*
X14505140Y-10426700D02*
G75*
G03*
X14505140Y-10426700I-50000J0D01*
G01*
X14535620Y-7335520D02*
G75*
G03*
X14535620Y-7335520I-50000J0D01*
G01*
X14759140Y-10426700D02*
G75*
G03*
X14759140Y-10426700I-50000J0D01*
G01*
X14789620Y-7335520D02*
G75*
G03*
X14789620Y-7335520I-50000J0D01*
G01*
X15013140Y-10426700D02*
G75*
G03*
X15013140Y-10426700I-50000J0D01*
G01*
X15043620Y-7335520D02*
G75*
G03*
X15043620Y-7335520I-50000J0D01*
G01*
X15267140Y-10426700D02*
G75*
G03*
X15267140Y-10426700I-50000J0D01*
G01*
X15297620Y-7335520D02*
G75*
G03*
X15297620Y-7335520I-50000J0D01*
G01*
X15521140Y-10426700D02*
G75*
G03*
X15521140Y-10426700I-50000J0D01*
G01*
X15551620Y-7335520D02*
G75*
G03*
X15551620Y-7335520I-50000J0D01*
G01*
X15775140Y-10426700D02*
G75*
G03*
X15775140Y-10426700I-50000J0D01*
G01*
X15805620Y-7335520D02*
G75*
G03*
X15805620Y-7335520I-50000J0D01*
G01*
X16029140Y-10426700D02*
G75*
G03*
X16029140Y-10426700I-50000J0D01*
G01*
X16059620Y-7335520D02*
G75*
G03*
X16059620Y-7335520I-50000J0D01*
G01*
X16283140Y-10426700D02*
G75*
G03*
X16283140Y-10426700I-50000J0D01*
G01*
X16313620Y-7335520D02*
G75*
G03*
X16313620Y-7335520I-50000J0D01*
G01*
X16537140Y-10426700D02*
G75*
G03*
X16537140Y-10426700I-50000J0D01*
G01*
X16567620Y-7335520D02*
G75*
G03*
X16567620Y-7335520I-50000J0D01*
G01*
X16791140Y-10426700D02*
G75*
G03*
X16791140Y-10426700I-50000J0D01*
G01*
X16821620Y-7335520D02*
G75*
G03*
X16821620Y-7335520I-50000J0D01*
G01*
X17045140Y-10426700D02*
G75*
G03*
X17045140Y-10426700I-50000J0D01*
G01*
X17075620Y-7335520D02*
G75*
G03*
X17075620Y-7335520I-50000J0D01*
G01*
D11*
X12703699Y-10983476D02*
X12703699Y-10783476D01*
X12751318Y-10783476D01*
X12779889Y-10793000D01*
X12798937Y-10812048D01*
X12808461Y-10831095D01*
X12817985Y-10869190D01*
X12817985Y-10897762D01*
X12808461Y-10935857D01*
X12798937Y-10954905D01*
X12779889Y-10973952D01*
X12751318Y-10983476D01*
X12703699Y-10983476D01*
X12903699Y-10983476D02*
X12903699Y-10850143D01*
X12903699Y-10888238D02*
X12913223Y-10869190D01*
X12922747Y-10859667D01*
X12941794Y-10850143D01*
X12960842Y-10850143D01*
X13027508Y-10983476D02*
X13027508Y-10850143D01*
X13027508Y-10783476D02*
X13017985Y-10793000D01*
X13027508Y-10802524D01*
X13037032Y-10793000D01*
X13027508Y-10783476D01*
X13027508Y-10802524D01*
X13151318Y-10983476D02*
X13132270Y-10973952D01*
X13122747Y-10954905D01*
X13122747Y-10783476D01*
X13256080Y-10983476D02*
X13237032Y-10973952D01*
X13227508Y-10954905D01*
X13227508Y-10783476D01*
X13484651Y-10983476D02*
X13484651Y-10783476D01*
X13551318Y-10926333D01*
X13617985Y-10783476D01*
X13617985Y-10983476D01*
X13798937Y-10983476D02*
X13798937Y-10878714D01*
X13789413Y-10859667D01*
X13770366Y-10850143D01*
X13732270Y-10850143D01*
X13713223Y-10859667D01*
X13798937Y-10973952D02*
X13779889Y-10983476D01*
X13732270Y-10983476D01*
X13713223Y-10973952D01*
X13703699Y-10954905D01*
X13703699Y-10935857D01*
X13713223Y-10916810D01*
X13732270Y-10907286D01*
X13779889Y-10907286D01*
X13798937Y-10897762D01*
X13894175Y-10850143D02*
X13894175Y-11050143D01*
X13894175Y-10859667D02*
X13913223Y-10850143D01*
X13951318Y-10850143D01*
X13970366Y-10859667D01*
X13979889Y-10869190D01*
X13989413Y-10888238D01*
X13989413Y-10945381D01*
X13979889Y-10964429D01*
X13970366Y-10973952D01*
X13951318Y-10983476D01*
X13913223Y-10983476D01*
X13894175Y-10973952D01*
X14075128Y-10964429D02*
X14084651Y-10973952D01*
X14075128Y-10983476D01*
X14065604Y-10973952D01*
X14075128Y-10964429D01*
X14075128Y-10983476D01*
X14075128Y-10859667D02*
X14084651Y-10869190D01*
X14075128Y-10878714D01*
X14065604Y-10869190D01*
X14075128Y-10859667D01*
X14075128Y-10878714D01*
D12*
X12406080Y-11293000D02*
X12446080Y-11333000D01*
X12446080Y-11293000D02*
X12406080Y-11333000D01*
D11*
X12741794Y-11203476D02*
X12760842Y-11203476D01*
X12779889Y-11213000D01*
X12789413Y-11222524D01*
X12798937Y-11241571D01*
X12808461Y-11279667D01*
X12808461Y-11327286D01*
X12798937Y-11365381D01*
X12789413Y-11384428D01*
X12779889Y-11393952D01*
X12760842Y-11403476D01*
X12741794Y-11403476D01*
X12722747Y-11393952D01*
X12713223Y-11384428D01*
X12703699Y-11365381D01*
X12694175Y-11327286D01*
X12694175Y-11279667D01*
X12703699Y-11241571D01*
X12713223Y-11222524D01*
X12722747Y-11213000D01*
X12741794Y-11203476D01*
X12894175Y-11384428D02*
X12903699Y-11393952D01*
X12894175Y-11403476D01*
X12884651Y-11393952D01*
X12894175Y-11384428D01*
X12894175Y-11403476D01*
X13075128Y-11270143D02*
X13075128Y-11403476D01*
X13027508Y-11193952D02*
X12979889Y-11336809D01*
X13103699Y-11336809D01*
X13217985Y-11203476D02*
X13237032Y-11203476D01*
X13256080Y-11213000D01*
X13265604Y-11222524D01*
X13275128Y-11241571D01*
X13284651Y-11279667D01*
X13284651Y-11327286D01*
X13275128Y-11365381D01*
X13265604Y-11384428D01*
X13256080Y-11393952D01*
X13237032Y-11403476D01*
X13217985Y-11403476D01*
X13198937Y-11393952D01*
X13189413Y-11384428D01*
X13179889Y-11365381D01*
X13170366Y-11327286D01*
X13170366Y-11279667D01*
X13179889Y-11241571D01*
X13189413Y-11222524D01*
X13198937Y-11213000D01*
X13217985Y-11203476D01*
X13408461Y-11203476D02*
X13427508Y-11203476D01*
X13446556Y-11213000D01*
X13456080Y-11222524D01*
X13465604Y-11241571D01*
X13475128Y-11279667D01*
X13475128Y-11327286D01*
X13465604Y-11365381D01*
X13456080Y-11384428D01*
X13446556Y-11393952D01*
X13427508Y-11403476D01*
X13408461Y-11403476D01*
X13389413Y-11393952D01*
X13379889Y-11384428D01*
X13370366Y-11365381D01*
X13360842Y-11327286D01*
X13360842Y-11279667D01*
X13370366Y-11241571D01*
X13379889Y-11222524D01*
X13389413Y-11213000D01*
X13408461Y-11203476D01*
X13560842Y-11403476D02*
X13560842Y-11270143D01*
X13560842Y-11289190D02*
X13570366Y-11279667D01*
X13589413Y-11270143D01*
X13617985Y-11270143D01*
X13637032Y-11279667D01*
X13646556Y-11298714D01*
X13646556Y-11403476D01*
X13646556Y-11298714D02*
X13656080Y-11279667D01*
X13675128Y-11270143D01*
X13703699Y-11270143D01*
X13722747Y-11279667D01*
X13732270Y-11298714D01*
X13732270Y-11403476D01*
X13827508Y-11403476D02*
X13827508Y-11270143D01*
X13827508Y-11289190D02*
X13837032Y-11279667D01*
X13856080Y-11270143D01*
X13884651Y-11270143D01*
X13903699Y-11279667D01*
X13913223Y-11298714D01*
X13913223Y-11403476D01*
X13913223Y-11298714D02*
X13922747Y-11279667D01*
X13941794Y-11270143D01*
X13970366Y-11270143D01*
X13989413Y-11279667D01*
X13998937Y-11298714D01*
X13998937Y-11403476D01*
X14389413Y-11193952D02*
X14217985Y-11451095D01*
X14646556Y-11203476D02*
X14665604Y-11203476D01*
X14684651Y-11213000D01*
X14694175Y-11222524D01*
X14703699Y-11241571D01*
X14713223Y-11279667D01*
X14713223Y-11327286D01*
X14703699Y-11365381D01*
X14694175Y-11384428D01*
X14684651Y-11393952D01*
X14665604Y-11403476D01*
X14646556Y-11403476D01*
X14627508Y-11393952D01*
X14617985Y-11384428D01*
X14608461Y-11365381D01*
X14598937Y-11327286D01*
X14598937Y-11279667D01*
X14608461Y-11241571D01*
X14617985Y-11222524D01*
X14627508Y-11213000D01*
X14646556Y-11203476D01*
X14798937Y-11384428D02*
X14808461Y-11393952D01*
X14798937Y-11403476D01*
X14789413Y-11393952D01*
X14798937Y-11384428D01*
X14798937Y-11403476D01*
X14932270Y-11203476D02*
X14951318Y-11203476D01*
X14970366Y-11213000D01*
X14979889Y-11222524D01*
X14989413Y-11241571D01*
X14998937Y-11279667D01*
X14998937Y-11327286D01*
X14989413Y-11365381D01*
X14979889Y-11384428D01*
X14970366Y-11393952D01*
X14951318Y-11403476D01*
X14932270Y-11403476D01*
X14913223Y-11393952D01*
X14903699Y-11384428D01*
X14894175Y-11365381D01*
X14884651Y-11327286D01*
X14884651Y-11279667D01*
X14894175Y-11241571D01*
X14903699Y-11222524D01*
X14913223Y-11213000D01*
X14932270Y-11203476D01*
X15189413Y-11403476D02*
X15075128Y-11403476D01*
X15132270Y-11403476D02*
X15132270Y-11203476D01*
X15113223Y-11232048D01*
X15094175Y-11251095D01*
X15075128Y-11260619D01*
X15370366Y-11203476D02*
X15275128Y-11203476D01*
X15265604Y-11298714D01*
X15275128Y-11289190D01*
X15294175Y-11279667D01*
X15341794Y-11279667D01*
X15360842Y-11289190D01*
X15370366Y-11298714D01*
X15379889Y-11317762D01*
X15379889Y-11365381D01*
X15370366Y-11384428D01*
X15360842Y-11393952D01*
X15341794Y-11403476D01*
X15294175Y-11403476D01*
X15275128Y-11393952D01*
X15265604Y-11384428D01*
X15446556Y-11203476D02*
X15579889Y-11203476D01*
X15494175Y-11403476D01*
X15646556Y-11203476D02*
X15646556Y-11241571D01*
X15722747Y-11203476D02*
X15722747Y-11241571D01*
X16017985Y-11479667D02*
X16008461Y-11470143D01*
X15989413Y-11441571D01*
X15979889Y-11422524D01*
X15970366Y-11393952D01*
X15960842Y-11346333D01*
X15960842Y-11308238D01*
X15970366Y-11260619D01*
X15979889Y-11232048D01*
X15989413Y-11213000D01*
X16008461Y-11184429D01*
X16017985Y-11174905D01*
X16189413Y-11203476D02*
X16094175Y-11203476D01*
X16084651Y-11298714D01*
X16094175Y-11289190D01*
X16113223Y-11279667D01*
X16160842Y-11279667D01*
X16179889Y-11289190D01*
X16189413Y-11298714D01*
X16198937Y-11317762D01*
X16198937Y-11365381D01*
X16189413Y-11384428D01*
X16179889Y-11393952D01*
X16160842Y-11403476D01*
X16113223Y-11403476D01*
X16094175Y-11393952D01*
X16084651Y-11384428D01*
X16265604Y-11203476D02*
X16389413Y-11203476D01*
X16322747Y-11279667D01*
X16351318Y-11279667D01*
X16370366Y-11289190D01*
X16379889Y-11298714D01*
X16389413Y-11317762D01*
X16389413Y-11365381D01*
X16379889Y-11384428D01*
X16370366Y-11393952D01*
X16351318Y-11403476D01*
X16294175Y-11403476D01*
X16275128Y-11393952D01*
X16265604Y-11384428D01*
X16627508Y-11403476D02*
X16627508Y-11203476D01*
X16713223Y-11403476D02*
X16713223Y-11298714D01*
X16703699Y-11279667D01*
X16684651Y-11270143D01*
X16656080Y-11270143D01*
X16637032Y-11279667D01*
X16627508Y-11289190D01*
X16837032Y-11403476D02*
X16817985Y-11393952D01*
X16808461Y-11384428D01*
X16798937Y-11365381D01*
X16798937Y-11308238D01*
X16808461Y-11289190D01*
X16817985Y-11279667D01*
X16837032Y-11270143D01*
X16865604Y-11270143D01*
X16884651Y-11279667D01*
X16894175Y-11289190D01*
X16903699Y-11308238D01*
X16903699Y-11365381D01*
X16894175Y-11384428D01*
X16884651Y-11393952D01*
X16865604Y-11403476D01*
X16837032Y-11403476D01*
X17017985Y-11403476D02*
X16998937Y-11393952D01*
X16989413Y-11374905D01*
X16989413Y-11203476D01*
X17170366Y-11393952D02*
X17151318Y-11403476D01*
X17113223Y-11403476D01*
X17094175Y-11393952D01*
X17084651Y-11374905D01*
X17084651Y-11298714D01*
X17094175Y-11279667D01*
X17113223Y-11270143D01*
X17151318Y-11270143D01*
X17170366Y-11279667D01*
X17179890Y-11298714D01*
X17179890Y-11317762D01*
X17084651Y-11336809D01*
X17256080Y-11393952D02*
X17275128Y-11403476D01*
X17313223Y-11403476D01*
X17332270Y-11393952D01*
X17341794Y-11374905D01*
X17341794Y-11365381D01*
X17332270Y-11346333D01*
X17313223Y-11336809D01*
X17284651Y-11336809D01*
X17265604Y-11327286D01*
X17256080Y-11308238D01*
X17256080Y-11298714D01*
X17265604Y-11279667D01*
X17284651Y-11270143D01*
X17313223Y-11270143D01*
X17332270Y-11279667D01*
X17408461Y-11479667D02*
X17417985Y-11470143D01*
X17437032Y-11441571D01*
X17446556Y-11422524D01*
X17456080Y-11393952D01*
X17465604Y-11346333D01*
X17465604Y-11308238D01*
X17456080Y-11260619D01*
X17446556Y-11232048D01*
X17437032Y-11213000D01*
X17417985Y-11184429D01*
X17408461Y-11174905D01*
D13*
X12446080Y-11577000D02*
G75*
G03*
X12446080Y-11577000I-50000J0D01*
G01*
D11*
X12808461Y-11667476D02*
X12694175Y-11667476D01*
X12751318Y-11667476D02*
X12751318Y-11467476D01*
X12732270Y-11496048D01*
X12713223Y-11515095D01*
X12694175Y-11524619D01*
X12894175Y-11648428D02*
X12903699Y-11657952D01*
X12894175Y-11667476D01*
X12884651Y-11657952D01*
X12894175Y-11648428D01*
X12894175Y-11667476D01*
X13027508Y-11467476D02*
X13046556Y-11467476D01*
X13065604Y-11477000D01*
X13075128Y-11486524D01*
X13084651Y-11505571D01*
X13094175Y-11543667D01*
X13094175Y-11591286D01*
X13084651Y-11629381D01*
X13075128Y-11648428D01*
X13065604Y-11657952D01*
X13046556Y-11667476D01*
X13027508Y-11667476D01*
X13008461Y-11657952D01*
X12998937Y-11648428D01*
X12989413Y-11629381D01*
X12979889Y-11591286D01*
X12979889Y-11543667D01*
X12989413Y-11505571D01*
X12998937Y-11486524D01*
X13008461Y-11477000D01*
X13027508Y-11467476D01*
X13217985Y-11467476D02*
X13237032Y-11467476D01*
X13256080Y-11477000D01*
X13265604Y-11486524D01*
X13275128Y-11505571D01*
X13284651Y-11543667D01*
X13284651Y-11591286D01*
X13275128Y-11629381D01*
X13265604Y-11648428D01*
X13256080Y-11657952D01*
X13237032Y-11667476D01*
X13217985Y-11667476D01*
X13198937Y-11657952D01*
X13189413Y-11648428D01*
X13179889Y-11629381D01*
X13170366Y-11591286D01*
X13170366Y-11543667D01*
X13179889Y-11505571D01*
X13189413Y-11486524D01*
X13198937Y-11477000D01*
X13217985Y-11467476D01*
X13408461Y-11467476D02*
X13427508Y-11467476D01*
X13446556Y-11477000D01*
X13456080Y-11486524D01*
X13465604Y-11505571D01*
X13475128Y-11543667D01*
X13475128Y-11591286D01*
X13465604Y-11629381D01*
X13456080Y-11648428D01*
X13446556Y-11657952D01*
X13427508Y-11667476D01*
X13408461Y-11667476D01*
X13389413Y-11657952D01*
X13379889Y-11648428D01*
X13370366Y-11629381D01*
X13360842Y-11591286D01*
X13360842Y-11543667D01*
X13370366Y-11505571D01*
X13379889Y-11486524D01*
X13389413Y-11477000D01*
X13408461Y-11467476D01*
X13560842Y-11667476D02*
X13560842Y-11534143D01*
X13560842Y-11553190D02*
X13570366Y-11543667D01*
X13589413Y-11534143D01*
X13617985Y-11534143D01*
X13637032Y-11543667D01*
X13646556Y-11562714D01*
X13646556Y-11667476D01*
X13646556Y-11562714D02*
X13656080Y-11543667D01*
X13675128Y-11534143D01*
X13703699Y-11534143D01*
X13722747Y-11543667D01*
X13732270Y-11562714D01*
X13732270Y-11667476D01*
X13827508Y-11667476D02*
X13827508Y-11534143D01*
X13827508Y-11553190D02*
X13837032Y-11543667D01*
X13856080Y-11534143D01*
X13884651Y-11534143D01*
X13903699Y-11543667D01*
X13913223Y-11562714D01*
X13913223Y-11667476D01*
X13913223Y-11562714D02*
X13922747Y-11543667D01*
X13941794Y-11534143D01*
X13970366Y-11534143D01*
X13989413Y-11543667D01*
X13998937Y-11562714D01*
X13998937Y-11667476D01*
X14389413Y-11457952D02*
X14217985Y-11715095D01*
X14646556Y-11467476D02*
X14665604Y-11467476D01*
X14684651Y-11477000D01*
X14694175Y-11486524D01*
X14703699Y-11505571D01*
X14713223Y-11543667D01*
X14713223Y-11591286D01*
X14703699Y-11629381D01*
X14694175Y-11648428D01*
X14684651Y-11657952D01*
X14665604Y-11667476D01*
X14646556Y-11667476D01*
X14627508Y-11657952D01*
X14617985Y-11648428D01*
X14608461Y-11629381D01*
X14598937Y-11591286D01*
X14598937Y-11543667D01*
X14608461Y-11505571D01*
X14617985Y-11486524D01*
X14627508Y-11477000D01*
X14646556Y-11467476D01*
X14798937Y-11648428D02*
X14808461Y-11657952D01*
X14798937Y-11667476D01*
X14789413Y-11657952D01*
X14798937Y-11648428D01*
X14798937Y-11667476D01*
X14932270Y-11467476D02*
X14951318Y-11467476D01*
X14970366Y-11477000D01*
X14979889Y-11486524D01*
X14989413Y-11505571D01*
X14998937Y-11543667D01*
X14998937Y-11591286D01*
X14989413Y-11629381D01*
X14979889Y-11648428D01*
X14970366Y-11657952D01*
X14951318Y-11667476D01*
X14932270Y-11667476D01*
X14913223Y-11657952D01*
X14903699Y-11648428D01*
X14894175Y-11629381D01*
X14884651Y-11591286D01*
X14884651Y-11543667D01*
X14894175Y-11505571D01*
X14903699Y-11486524D01*
X14913223Y-11477000D01*
X14932270Y-11467476D01*
X15065604Y-11467476D02*
X15189413Y-11467476D01*
X15122747Y-11543667D01*
X15151318Y-11543667D01*
X15170366Y-11553190D01*
X15179889Y-11562714D01*
X15189413Y-11581762D01*
X15189413Y-11629381D01*
X15179889Y-11648428D01*
X15170366Y-11657952D01*
X15151318Y-11667476D01*
X15094175Y-11667476D01*
X15075128Y-11657952D01*
X15065604Y-11648428D01*
X15284651Y-11667476D02*
X15322747Y-11667476D01*
X15341794Y-11657952D01*
X15351318Y-11648428D01*
X15370366Y-11619857D01*
X15379889Y-11581762D01*
X15379889Y-11505571D01*
X15370366Y-11486524D01*
X15360842Y-11477000D01*
X15341794Y-11467476D01*
X15303699Y-11467476D01*
X15284651Y-11477000D01*
X15275128Y-11486524D01*
X15265604Y-11505571D01*
X15265604Y-11553190D01*
X15275128Y-11572238D01*
X15284651Y-11581762D01*
X15303699Y-11591286D01*
X15341794Y-11591286D01*
X15360842Y-11581762D01*
X15370366Y-11572238D01*
X15379889Y-11553190D01*
X15551318Y-11534143D02*
X15551318Y-11667476D01*
X15503699Y-11457952D02*
X15456080Y-11600809D01*
X15579889Y-11600809D01*
X15646556Y-11467476D02*
X15646556Y-11505571D01*
X15722747Y-11467476D02*
X15722747Y-11505571D01*
X16017985Y-11743667D02*
X16008461Y-11734143D01*
X15989413Y-11705571D01*
X15979889Y-11686524D01*
X15970366Y-11657952D01*
X15960842Y-11610333D01*
X15960842Y-11572238D01*
X15970366Y-11524619D01*
X15979889Y-11496048D01*
X15989413Y-11477000D01*
X16008461Y-11448428D01*
X16017985Y-11438905D01*
X16179889Y-11534143D02*
X16179889Y-11667476D01*
X16132270Y-11457952D02*
X16084651Y-11600809D01*
X16208461Y-11600809D01*
X16322747Y-11467476D02*
X16341794Y-11467476D01*
X16360842Y-11477000D01*
X16370366Y-11486524D01*
X16379889Y-11505571D01*
X16389413Y-11543667D01*
X16389413Y-11591286D01*
X16379889Y-11629381D01*
X16370366Y-11648428D01*
X16360842Y-11657952D01*
X16341794Y-11667476D01*
X16322747Y-11667476D01*
X16303699Y-11657952D01*
X16294175Y-11648428D01*
X16284651Y-11629381D01*
X16275128Y-11591286D01*
X16275128Y-11543667D01*
X16284651Y-11505571D01*
X16294175Y-11486524D01*
X16303699Y-11477000D01*
X16322747Y-11467476D01*
X16627508Y-11667476D02*
X16627508Y-11467476D01*
X16713223Y-11667476D02*
X16713223Y-11562714D01*
X16703699Y-11543667D01*
X16684651Y-11534143D01*
X16656080Y-11534143D01*
X16637032Y-11543667D01*
X16627508Y-11553190D01*
X16837032Y-11667476D02*
X16817985Y-11657952D01*
X16808461Y-11648428D01*
X16798937Y-11629381D01*
X16798937Y-11572238D01*
X16808461Y-11553190D01*
X16817985Y-11543667D01*
X16837032Y-11534143D01*
X16865604Y-11534143D01*
X16884651Y-11543667D01*
X16894175Y-11553190D01*
X16903699Y-11572238D01*
X16903699Y-11629381D01*
X16894175Y-11648428D01*
X16884651Y-11657952D01*
X16865604Y-11667476D01*
X16837032Y-11667476D01*
X17017985Y-11667476D02*
X16998937Y-11657952D01*
X16989413Y-11638905D01*
X16989413Y-11467476D01*
X17170366Y-11657952D02*
X17151318Y-11667476D01*
X17113223Y-11667476D01*
X17094175Y-11657952D01*
X17084651Y-11638905D01*
X17084651Y-11562714D01*
X17094175Y-11543667D01*
X17113223Y-11534143D01*
X17151318Y-11534143D01*
X17170366Y-11543667D01*
X17179890Y-11562714D01*
X17179890Y-11581762D01*
X17084651Y-11600809D01*
X17256080Y-11657952D02*
X17275128Y-11667476D01*
X17313223Y-11667476D01*
X17332270Y-11657952D01*
X17341794Y-11638905D01*
X17341794Y-11629381D01*
X17332270Y-11610333D01*
X17313223Y-11600809D01*
X17284651Y-11600809D01*
X17265604Y-11591286D01*
X17256080Y-11572238D01*
X17256080Y-11562714D01*
X17265604Y-11543667D01*
X17284651Y-11534143D01*
X17313223Y-11534143D01*
X17332270Y-11543667D01*
X17408461Y-11743667D02*
X17417985Y-11734143D01*
X17437032Y-11705571D01*
X17446556Y-11686524D01*
X17456080Y-11657952D01*
X17465604Y-11610333D01*
X17465604Y-11572238D01*
X17456080Y-11524619D01*
X17446556Y-11496048D01*
X17437032Y-11477000D01*
X17417985Y-11448428D01*
X17408461Y-11438905D01*
M02*
