M48
; DRILL file {KiCad (6.0.6)} date Tue Jul 12 20:29:37 2022
; FORMAT={-:-/ absolute / metric / decimal}
; #@! TF.CreationDate,2022-07-12T20:29:37+05:30
; #@! TF.GenerationSoftware,Kicad,Pcbnew,(6.0.6)
; #@! TF.FileFunction,Plated,1,2,PTH
FMAT,2
METRIC
; #@! TA.AperFunction,Plated,PTH,ViaDrill
T1C0.400
; #@! TA.AperFunction,Plated,PTH,ComponentDrill
T2C1.000
%
G90
G05
T1
X135.763Y-86.208
X135.814Y-90.576
X139.192Y-98.702
X140.056Y-102.057
X142.545Y-102.083
X142.596Y-88.697
X143.259Y-99.394
X145.161Y-94.386
X145.39Y-102.083
X147.139Y-101.393
X147.202Y-93.198
X147.447Y-81.026
X147.879Y-87.859
X148.162Y-93.475
X150.063Y-92.634
X151.054Y-95.809
X151.206Y-83.109
X151.74Y-101.472
X151.943Y-77.254
X152.222Y-86.055
X153.213Y-79.578
X154.002Y-97.677
X154.051Y-81.229
X154.33Y-89.687
X154.499Y-96.358
X155.829Y-91.389
X155.987Y-92.766
X156.21Y-75.971
X156.366Y-96.092
X156.999Y-83.49
X157.226Y-88.544
X157.712Y-95.482
X157.927Y-83.862
X158.154Y-88.173
X158.308Y-84.786
X159.276Y-78.225
X159.801Y-86.888
X160.96Y-78.308
X161.795Y-79.404
X162.117Y-88.904
X162.18Y-83.693
X162.701Y-85.358
X162.841Y-87.675
X163.884Y-77.626
X165.76Y-87.944
X166.595Y-88.693
X166.903Y-90.678
X167.157Y-83.922
X167.259Y-86.868
X170.434Y-82.804
X170.441Y-89.738
X173.025Y-90.551
X174.574Y-78.791
T2
X126.568Y-80.173
X126.568Y-82.713
X126.568Y-85.253
X126.568Y-87.793
X126.568Y-90.333
X126.568Y-92.873
X126.568Y-95.413
X126.568Y-97.953
X131.851Y-104.267
X132.156Y-73.355
X134.391Y-104.267
X134.696Y-73.355
X136.931Y-104.267
X137.236Y-73.355
X139.471Y-104.267
X139.776Y-73.355
X142.011Y-104.267
X142.316Y-73.355
X144.551Y-104.267
X144.856Y-73.355
X147.091Y-104.267
X147.396Y-73.355
X149.631Y-104.267
X149.936Y-73.355
X152.171Y-104.267
X152.476Y-73.355
X154.711Y-104.267
X155.016Y-73.355
X157.251Y-104.267
X157.556Y-73.355
X159.791Y-104.267
X160.096Y-73.355
X162.331Y-104.267
X162.636Y-73.355
X164.871Y-104.267
X165.176Y-73.355
X167.411Y-104.267
X167.716Y-73.355
X169.951Y-104.267
X170.256Y-73.355
T0
M30
