G04 #@! TF.GenerationSoftware,KiCad,Pcbnew,(6.0.6)*
G04 #@! TF.CreationDate,2022-07-12T20:28:45+05:30*
G04 #@! TF.ProjectId,stm32_minimal_dev,73746d33-325f-46d6-996e-696d616c5f64,rev?*
G04 #@! TF.SameCoordinates,Original*
G04 #@! TF.FileFunction,Paste,Top*
G04 #@! TF.FilePolarity,Positive*
%FSLAX46Y46*%
G04 Gerber Fmt 4.6, Leading zero omitted, Abs format (unit mm)*
G04 Created by KiCad (PCBNEW (6.0.6)) date 2022-07-12 20:28:45*
%MOMM*%
%LPD*%
G01*
G04 APERTURE LIST*
G04 Aperture macros list*
%AMRoundRect*
0 Rectangle with rounded corners*
0 $1 Rounding radius*
0 $2 $3 $4 $5 $6 $7 $8 $9 X,Y pos of 4 corners*
0 Add a 4 corners polygon primitive as box body*
4,1,4,$2,$3,$4,$5,$6,$7,$8,$9,$2,$3,0*
0 Add four circle primitives for the rounded corners*
1,1,$1+$1,$2,$3*
1,1,$1+$1,$4,$5*
1,1,$1+$1,$6,$7*
1,1,$1+$1,$8,$9*
0 Add four rect primitives between the rounded corners*
20,1,$1+$1,$2,$3,$4,$5,0*
20,1,$1+$1,$4,$5,$6,$7,0*
20,1,$1+$1,$6,$7,$8,$9,0*
20,1,$1+$1,$8,$9,$2,$3,0*%
G04 Aperture macros list end*
%ADD10RoundRect,0.218750X0.218750X0.256250X-0.218750X0.256250X-0.218750X-0.256250X0.218750X-0.256250X0*%
%ADD11RoundRect,0.250000X-0.250000X-0.475000X0.250000X-0.475000X0.250000X0.475000X-0.250000X0.475000X0*%
%ADD12RoundRect,0.140000X-0.170000X0.140000X-0.170000X-0.140000X0.170000X-0.140000X0.170000X0.140000X0*%
%ADD13R,1.350000X0.400000*%
%ADD14R,1.900000X1.800000*%
%ADD15R,1.900000X1.900000*%
%ADD16RoundRect,0.218750X-0.256250X0.218750X-0.256250X-0.218750X0.256250X-0.218750X0.256250X0.218750X0*%
%ADD17R,1.500000X2.000000*%
%ADD18R,3.800000X2.000000*%
%ADD19RoundRect,0.140000X0.140000X0.170000X-0.140000X0.170000X-0.140000X-0.170000X0.140000X-0.170000X0*%
%ADD20RoundRect,0.250000X0.475000X-0.250000X0.475000X0.250000X-0.475000X0.250000X-0.475000X-0.250000X0*%
%ADD21RoundRect,0.140000X-0.140000X-0.170000X0.140000X-0.170000X0.140000X0.170000X-0.140000X0.170000X0*%
%ADD22RoundRect,0.075000X-0.662500X-0.075000X0.662500X-0.075000X0.662500X0.075000X-0.662500X0.075000X0*%
%ADD23RoundRect,0.075000X-0.075000X-0.662500X0.075000X-0.662500X0.075000X0.662500X-0.075000X0.662500X0*%
%ADD24R,0.800000X1.000000*%
%ADD25R,1.500000X0.700000*%
%ADD26R,1.200000X1.400000*%
%ADD27RoundRect,0.135000X-0.185000X0.135000X-0.185000X-0.135000X0.185000X-0.135000X0.185000X0.135000X0*%
%ADD28RoundRect,0.225000X-0.225000X-0.250000X0.225000X-0.250000X0.225000X0.250000X-0.225000X0.250000X0*%
%ADD29RoundRect,0.135000X0.135000X0.185000X-0.135000X0.185000X-0.135000X-0.185000X0.135000X-0.185000X0*%
%ADD30RoundRect,0.140000X0.170000X-0.140000X0.170000X0.140000X-0.170000X0.140000X-0.170000X-0.140000X0*%
%ADD31RoundRect,0.135000X-0.135000X-0.185000X0.135000X-0.185000X0.135000X0.185000X-0.135000X0.185000X0*%
G04 APERTURE END LIST*
D10*
X170484900Y-92176600D03*
X168909900Y-92176600D03*
D11*
X165013600Y-92176600D03*
X166913600Y-92176600D03*
D12*
X165938200Y-82959000D03*
X165938200Y-83919000D03*
D13*
X171950000Y-85882000D03*
X171950000Y-85232000D03*
X171950000Y-84582000D03*
X171950000Y-83932000D03*
X171950000Y-83282000D03*
D14*
X174625000Y-88582000D03*
D15*
X174625000Y-85782000D03*
X174625000Y-83382000D03*
D14*
X174625000Y-80582000D03*
D16*
X153467600Y-92068200D03*
X153467600Y-93643200D03*
D17*
X169584400Y-94690800D03*
X167284400Y-94690800D03*
D18*
X167284400Y-100990800D03*
D17*
X164984400Y-94690800D03*
D19*
X163294000Y-91694000D03*
X162334000Y-91694000D03*
D20*
X171983400Y-98105000D03*
X171983400Y-96205000D03*
D19*
X151947600Y-93548200D03*
X150987600Y-93548200D03*
D21*
X156898400Y-79806800D03*
X157858400Y-79806800D03*
D12*
X151206200Y-86057800D03*
X151206200Y-87017800D03*
D22*
X155705100Y-83178200D03*
X155705100Y-83678200D03*
X155705100Y-84178200D03*
X155705100Y-84678200D03*
X155705100Y-85178200D03*
X155705100Y-85678200D03*
X155705100Y-86178200D03*
X155705100Y-86678200D03*
X155705100Y-87178200D03*
X155705100Y-87678200D03*
X155705100Y-88178200D03*
X155705100Y-88678200D03*
D23*
X157117600Y-90090700D03*
X157617600Y-90090700D03*
X158117600Y-90090700D03*
X158617600Y-90090700D03*
X159117600Y-90090700D03*
X159617600Y-90090700D03*
X160117600Y-90090700D03*
X160617600Y-90090700D03*
X161117600Y-90090700D03*
X161617600Y-90090700D03*
X162117600Y-90090700D03*
X162617600Y-90090700D03*
D22*
X164030100Y-88678200D03*
X164030100Y-88178200D03*
X164030100Y-87678200D03*
X164030100Y-87178200D03*
X164030100Y-86678200D03*
X164030100Y-86178200D03*
X164030100Y-85678200D03*
X164030100Y-85178200D03*
X164030100Y-84678200D03*
X164030100Y-84178200D03*
X164030100Y-83678200D03*
X164030100Y-83178200D03*
D23*
X162617600Y-81765700D03*
X162117600Y-81765700D03*
X161617600Y-81765700D03*
X161117600Y-81765700D03*
X160617600Y-81765700D03*
X160117600Y-81765700D03*
X159617600Y-81765700D03*
X159117600Y-81765700D03*
X158617600Y-81765700D03*
X158117600Y-81765700D03*
X157617600Y-81765700D03*
X157117600Y-81765700D03*
D24*
X176944000Y-91981000D03*
X174734000Y-99281000D03*
X176944000Y-99281000D03*
X174734000Y-91981000D03*
D25*
X174084000Y-97881000D03*
X174084000Y-94881000D03*
X174084000Y-93381000D03*
D26*
X149542500Y-86266200D03*
X149542500Y-84066200D03*
X147842500Y-84066200D03*
X147842500Y-86266200D03*
D27*
X169748200Y-83589400D03*
X169748200Y-84609400D03*
D28*
X156654200Y-78155800D03*
X158204200Y-78155800D03*
D29*
X175541400Y-90474800D03*
X174521400Y-90474800D03*
X170207400Y-90754200D03*
X169187400Y-90754200D03*
D19*
X152947600Y-95318200D03*
X151987600Y-95318200D03*
D12*
X150977600Y-88470800D03*
X150977600Y-89430800D03*
D29*
X158294800Y-100431600D03*
X157274800Y-100431600D03*
D19*
X151940200Y-92125800D03*
X150980200Y-92125800D03*
D12*
X151206200Y-83873400D03*
X151206200Y-84833400D03*
D30*
X154051000Y-83182400D03*
X154051000Y-82222400D03*
D31*
X159408400Y-100431600D03*
X160428400Y-100431600D03*
M02*
