%FSLAX45Y45*%
G04 Gerber Fmt 4.5, Leading zero omitted, Abs format (unit mm)*
G04 Created by KiCad (PCBNEW (6.0.6)) date 2022-07-12 20:30:33*
%MOMM*%
%LPD*%
G01*
G04 APERTURE LIST*
%TA.AperFunction,Profile*%
%ADD10C,0.100000*%
%TD*%
%ADD11C,0.200000*%
%ADD12C,0.070000*%
%ADD13C,0.090000*%
%ADD14C,0.220000*%
G04 APERTURE END LIST*
D10*
X17531080Y-7112000D02*
X12705080Y-7112000D01*
X17785080Y-7366000D02*
G75*
G03*
X17531080Y-7112000I-254000J0D01*
G01*
X12451080Y-7366000D02*
X12451080Y-10416540D01*
X17785080Y-7366000D02*
X17785080Y-10414000D01*
X17531080Y-10668000D02*
G75*
G03*
X17785080Y-10414000I0J254000D01*
G01*
X12705080Y-10668000D02*
X17531080Y-10668000D01*
X12451083Y-10416540D02*
G75*
G03*
X12705080Y-10668000I253997J2550D01*
G01*
X12705080Y-7112000D02*
G75*
G03*
X12451080Y-7366000I0J-254000D01*
G01*
D11*
D12*
X17182500Y-8215700D02*
X17252500Y-8285700D01*
X17252500Y-8215700D02*
X17182500Y-8285700D01*
X17182500Y-8630700D02*
X17252500Y-8700700D01*
X17252500Y-8630700D02*
X17182500Y-8700700D01*
D13*
X17629400Y-9413100D02*
G75*
G03*
X17629400Y-9413100I-45000J0D01*
G01*
X17629400Y-9713100D02*
G75*
G03*
X17629400Y-9713100I-45000J0D01*
G01*
D14*
X12705080Y-7256000D02*
X12705080Y-7476000D01*
X12595080Y-7366000D02*
X12815080Y-7366000D01*
X12705080Y-10304000D02*
X12705080Y-10524000D01*
X12595080Y-10414000D02*
X12815080Y-10414000D01*
X17531080Y-7256000D02*
X17531080Y-7476000D01*
X17421080Y-7366000D02*
X17641080Y-7366000D01*
X17531080Y-10304000D02*
X17531080Y-10524000D01*
X17421080Y-10414000D02*
X17641080Y-10414000D01*
D11*
X12703699Y-10983476D02*
X12703699Y-10783476D01*
X12751318Y-10783476D01*
X12779889Y-10793000D01*
X12798937Y-10812048D01*
X12808461Y-10831095D01*
X12817985Y-10869190D01*
X12817985Y-10897762D01*
X12808461Y-10935857D01*
X12798937Y-10954905D01*
X12779889Y-10973952D01*
X12751318Y-10983476D01*
X12703699Y-10983476D01*
X12903699Y-10983476D02*
X12903699Y-10850143D01*
X12903699Y-10888238D02*
X12913223Y-10869190D01*
X12922747Y-10859667D01*
X12941794Y-10850143D01*
X12960842Y-10850143D01*
X13027508Y-10983476D02*
X13027508Y-10850143D01*
X13027508Y-10783476D02*
X13017985Y-10793000D01*
X13027508Y-10802524D01*
X13037032Y-10793000D01*
X13027508Y-10783476D01*
X13027508Y-10802524D01*
X13151318Y-10983476D02*
X13132270Y-10973952D01*
X13122747Y-10954905D01*
X13122747Y-10783476D01*
X13256080Y-10983476D02*
X13237032Y-10973952D01*
X13227508Y-10954905D01*
X13227508Y-10783476D01*
X13484651Y-10983476D02*
X13484651Y-10783476D01*
X13551318Y-10926333D01*
X13617985Y-10783476D01*
X13617985Y-10983476D01*
X13798937Y-10983476D02*
X13798937Y-10878714D01*
X13789413Y-10859667D01*
X13770366Y-10850143D01*
X13732270Y-10850143D01*
X13713223Y-10859667D01*
X13798937Y-10973952D02*
X13779889Y-10983476D01*
X13732270Y-10983476D01*
X13713223Y-10973952D01*
X13703699Y-10954905D01*
X13703699Y-10935857D01*
X13713223Y-10916810D01*
X13732270Y-10907286D01*
X13779889Y-10907286D01*
X13798937Y-10897762D01*
X13894175Y-10850143D02*
X13894175Y-11050143D01*
X13894175Y-10859667D02*
X13913223Y-10850143D01*
X13951318Y-10850143D01*
X13970366Y-10859667D01*
X13979889Y-10869190D01*
X13989413Y-10888238D01*
X13989413Y-10945381D01*
X13979889Y-10964429D01*
X13970366Y-10973952D01*
X13951318Y-10983476D01*
X13913223Y-10983476D01*
X13894175Y-10973952D01*
X14075128Y-10964429D02*
X14084651Y-10973952D01*
X14075128Y-10983476D01*
X14065604Y-10973952D01*
X14075128Y-10964429D01*
X14075128Y-10983476D01*
X14075128Y-10859667D02*
X14084651Y-10869190D01*
X14075128Y-10878714D01*
X14065604Y-10869190D01*
X14075128Y-10859667D01*
X14075128Y-10878714D01*
D12*
X12376080Y-11278000D02*
X12446080Y-11348000D01*
X12446080Y-11278000D02*
X12376080Y-11348000D01*
D11*
X12741794Y-11203476D02*
X12760842Y-11203476D01*
X12779889Y-11213000D01*
X12789413Y-11222524D01*
X12798937Y-11241571D01*
X12808461Y-11279667D01*
X12808461Y-11327286D01*
X12798937Y-11365381D01*
X12789413Y-11384428D01*
X12779889Y-11393952D01*
X12760842Y-11403476D01*
X12741794Y-11403476D01*
X12722747Y-11393952D01*
X12713223Y-11384428D01*
X12703699Y-11365381D01*
X12694175Y-11327286D01*
X12694175Y-11279667D01*
X12703699Y-11241571D01*
X12713223Y-11222524D01*
X12722747Y-11213000D01*
X12741794Y-11203476D01*
X12894175Y-11384428D02*
X12903699Y-11393952D01*
X12894175Y-11403476D01*
X12884651Y-11393952D01*
X12894175Y-11384428D01*
X12894175Y-11403476D01*
X12970366Y-11203476D02*
X13103699Y-11203476D01*
X13017985Y-11403476D01*
X13217985Y-11203476D02*
X13237032Y-11203476D01*
X13256080Y-11213000D01*
X13265604Y-11222524D01*
X13275128Y-11241571D01*
X13284651Y-11279667D01*
X13284651Y-11327286D01*
X13275128Y-11365381D01*
X13265604Y-11384428D01*
X13256080Y-11393952D01*
X13237032Y-11403476D01*
X13217985Y-11403476D01*
X13198937Y-11393952D01*
X13189413Y-11384428D01*
X13179889Y-11365381D01*
X13170366Y-11327286D01*
X13170366Y-11279667D01*
X13179889Y-11241571D01*
X13189413Y-11222524D01*
X13198937Y-11213000D01*
X13217985Y-11203476D01*
X13408461Y-11203476D02*
X13427508Y-11203476D01*
X13446556Y-11213000D01*
X13456080Y-11222524D01*
X13465604Y-11241571D01*
X13475128Y-11279667D01*
X13475128Y-11327286D01*
X13465604Y-11365381D01*
X13456080Y-11384428D01*
X13446556Y-11393952D01*
X13427508Y-11403476D01*
X13408461Y-11403476D01*
X13389413Y-11393952D01*
X13379889Y-11384428D01*
X13370366Y-11365381D01*
X13360842Y-11327286D01*
X13360842Y-11279667D01*
X13370366Y-11241571D01*
X13379889Y-11222524D01*
X13389413Y-11213000D01*
X13408461Y-11203476D01*
X13560842Y-11403476D02*
X13560842Y-11270143D01*
X13560842Y-11289190D02*
X13570366Y-11279667D01*
X13589413Y-11270143D01*
X13617985Y-11270143D01*
X13637032Y-11279667D01*
X13646556Y-11298714D01*
X13646556Y-11403476D01*
X13646556Y-11298714D02*
X13656080Y-11279667D01*
X13675128Y-11270143D01*
X13703699Y-11270143D01*
X13722747Y-11279667D01*
X13732270Y-11298714D01*
X13732270Y-11403476D01*
X13827508Y-11403476D02*
X13827508Y-11270143D01*
X13827508Y-11289190D02*
X13837032Y-11279667D01*
X13856080Y-11270143D01*
X13884651Y-11270143D01*
X13903699Y-11279667D01*
X13913223Y-11298714D01*
X13913223Y-11403476D01*
X13913223Y-11298714D02*
X13922747Y-11279667D01*
X13941794Y-11270143D01*
X13970366Y-11270143D01*
X13989413Y-11279667D01*
X13998937Y-11298714D01*
X13998937Y-11403476D01*
X14389413Y-11193952D02*
X14217985Y-11451095D01*
X14646556Y-11203476D02*
X14665604Y-11203476D01*
X14684651Y-11213000D01*
X14694175Y-11222524D01*
X14703699Y-11241571D01*
X14713223Y-11279667D01*
X14713223Y-11327286D01*
X14703699Y-11365381D01*
X14694175Y-11384428D01*
X14684651Y-11393952D01*
X14665604Y-11403476D01*
X14646556Y-11403476D01*
X14627508Y-11393952D01*
X14617985Y-11384428D01*
X14608461Y-11365381D01*
X14598937Y-11327286D01*
X14598937Y-11279667D01*
X14608461Y-11241571D01*
X14617985Y-11222524D01*
X14627508Y-11213000D01*
X14646556Y-11203476D01*
X14798937Y-11384428D02*
X14808461Y-11393952D01*
X14798937Y-11403476D01*
X14789413Y-11393952D01*
X14798937Y-11384428D01*
X14798937Y-11403476D01*
X14932270Y-11203476D02*
X14951318Y-11203476D01*
X14970366Y-11213000D01*
X14979889Y-11222524D01*
X14989413Y-11241571D01*
X14998937Y-11279667D01*
X14998937Y-11327286D01*
X14989413Y-11365381D01*
X14979889Y-11384428D01*
X14970366Y-11393952D01*
X14951318Y-11403476D01*
X14932270Y-11403476D01*
X14913223Y-11393952D01*
X14903699Y-11384428D01*
X14894175Y-11365381D01*
X14884651Y-11327286D01*
X14884651Y-11279667D01*
X14894175Y-11241571D01*
X14903699Y-11222524D01*
X14913223Y-11213000D01*
X14932270Y-11203476D01*
X15075128Y-11222524D02*
X15084651Y-11213000D01*
X15103699Y-11203476D01*
X15151318Y-11203476D01*
X15170366Y-11213000D01*
X15179889Y-11222524D01*
X15189413Y-11241571D01*
X15189413Y-11260619D01*
X15179889Y-11289190D01*
X15065604Y-11403476D01*
X15189413Y-11403476D01*
X15256080Y-11203476D02*
X15389413Y-11203476D01*
X15303699Y-11403476D01*
X15551318Y-11203476D02*
X15513223Y-11203476D01*
X15494175Y-11213000D01*
X15484651Y-11222524D01*
X15465604Y-11251095D01*
X15456080Y-11289190D01*
X15456080Y-11365381D01*
X15465604Y-11384428D01*
X15475128Y-11393952D01*
X15494175Y-11403476D01*
X15532270Y-11403476D01*
X15551318Y-11393952D01*
X15560842Y-11384428D01*
X15570366Y-11365381D01*
X15570366Y-11317762D01*
X15560842Y-11298714D01*
X15551318Y-11289190D01*
X15532270Y-11279667D01*
X15494175Y-11279667D01*
X15475128Y-11289190D01*
X15465604Y-11298714D01*
X15456080Y-11317762D01*
X15646556Y-11203476D02*
X15646556Y-11241571D01*
X15722747Y-11203476D02*
X15722747Y-11241571D01*
X16017985Y-11479667D02*
X16008461Y-11470143D01*
X15989413Y-11441571D01*
X15979889Y-11422524D01*
X15970366Y-11393952D01*
X15960842Y-11346333D01*
X15960842Y-11308238D01*
X15970366Y-11260619D01*
X15979889Y-11232048D01*
X15989413Y-11213000D01*
X16008461Y-11184429D01*
X16017985Y-11174905D01*
X16084651Y-11222524D02*
X16094175Y-11213000D01*
X16113223Y-11203476D01*
X16160842Y-11203476D01*
X16179889Y-11213000D01*
X16189413Y-11222524D01*
X16198937Y-11241571D01*
X16198937Y-11260619D01*
X16189413Y-11289190D01*
X16075128Y-11403476D01*
X16198937Y-11403476D01*
X16437032Y-11403476D02*
X16437032Y-11203476D01*
X16522747Y-11403476D02*
X16522747Y-11298714D01*
X16513223Y-11279667D01*
X16494175Y-11270143D01*
X16465604Y-11270143D01*
X16446556Y-11279667D01*
X16437032Y-11289190D01*
X16646556Y-11403476D02*
X16627508Y-11393952D01*
X16617985Y-11384428D01*
X16608461Y-11365381D01*
X16608461Y-11308238D01*
X16617985Y-11289190D01*
X16627508Y-11279667D01*
X16646556Y-11270143D01*
X16675128Y-11270143D01*
X16694175Y-11279667D01*
X16703699Y-11289190D01*
X16713223Y-11308238D01*
X16713223Y-11365381D01*
X16703699Y-11384428D01*
X16694175Y-11393952D01*
X16675128Y-11403476D01*
X16646556Y-11403476D01*
X16827509Y-11403476D02*
X16808461Y-11393952D01*
X16798937Y-11374905D01*
X16798937Y-11203476D01*
X16979890Y-11393952D02*
X16960842Y-11403476D01*
X16922747Y-11403476D01*
X16903699Y-11393952D01*
X16894175Y-11374905D01*
X16894175Y-11298714D01*
X16903699Y-11279667D01*
X16922747Y-11270143D01*
X16960842Y-11270143D01*
X16979890Y-11279667D01*
X16989413Y-11298714D01*
X16989413Y-11317762D01*
X16894175Y-11336809D01*
X17065604Y-11393952D02*
X17084651Y-11403476D01*
X17122747Y-11403476D01*
X17141794Y-11393952D01*
X17151318Y-11374905D01*
X17151318Y-11365381D01*
X17141794Y-11346333D01*
X17122747Y-11336809D01*
X17094175Y-11336809D01*
X17075128Y-11327286D01*
X17065604Y-11308238D01*
X17065604Y-11298714D01*
X17075128Y-11279667D01*
X17094175Y-11270143D01*
X17122747Y-11270143D01*
X17141794Y-11279667D01*
X17217985Y-11479667D02*
X17227509Y-11470143D01*
X17246556Y-11441571D01*
X17256080Y-11422524D01*
X17265604Y-11393952D01*
X17275128Y-11346333D01*
X17275128Y-11308238D01*
X17265604Y-11260619D01*
X17256080Y-11232048D01*
X17246556Y-11213000D01*
X17227509Y-11184429D01*
X17217985Y-11174905D01*
X17579890Y-11479667D02*
X17570366Y-11470143D01*
X17551318Y-11441571D01*
X17541794Y-11422524D01*
X17532270Y-11393952D01*
X17522747Y-11346333D01*
X17522747Y-11308238D01*
X17532270Y-11260619D01*
X17541794Y-11232048D01*
X17551318Y-11213000D01*
X17570366Y-11184429D01*
X17579890Y-11174905D01*
X17656080Y-11270143D02*
X17656080Y-11403476D01*
X17656080Y-11289190D02*
X17665604Y-11279667D01*
X17684651Y-11270143D01*
X17713223Y-11270143D01*
X17732270Y-11279667D01*
X17741794Y-11298714D01*
X17741794Y-11403476D01*
X17865604Y-11403476D02*
X17846556Y-11393952D01*
X17837032Y-11384428D01*
X17827509Y-11365381D01*
X17827509Y-11308238D01*
X17837032Y-11289190D01*
X17846556Y-11279667D01*
X17865604Y-11270143D01*
X17894175Y-11270143D01*
X17913223Y-11279667D01*
X17922747Y-11289190D01*
X17932270Y-11308238D01*
X17932270Y-11365381D01*
X17922747Y-11384428D01*
X17913223Y-11393952D01*
X17894175Y-11403476D01*
X17865604Y-11403476D01*
X17989413Y-11270143D02*
X18065604Y-11270143D01*
X18017985Y-11203476D02*
X18017985Y-11374905D01*
X18027509Y-11393952D01*
X18046556Y-11403476D01*
X18065604Y-11403476D01*
X18284651Y-11270143D02*
X18284651Y-11470143D01*
X18284651Y-11279667D02*
X18303699Y-11270143D01*
X18341794Y-11270143D01*
X18360842Y-11279667D01*
X18370366Y-11289190D01*
X18379890Y-11308238D01*
X18379890Y-11365381D01*
X18370366Y-11384428D01*
X18360842Y-11393952D01*
X18341794Y-11403476D01*
X18303699Y-11403476D01*
X18284651Y-11393952D01*
X18494175Y-11403476D02*
X18475128Y-11393952D01*
X18465604Y-11374905D01*
X18465604Y-11203476D01*
X18656080Y-11403476D02*
X18656080Y-11298714D01*
X18646556Y-11279667D01*
X18627509Y-11270143D01*
X18589413Y-11270143D01*
X18570366Y-11279667D01*
X18656080Y-11393952D02*
X18637032Y-11403476D01*
X18589413Y-11403476D01*
X18570366Y-11393952D01*
X18560842Y-11374905D01*
X18560842Y-11355857D01*
X18570366Y-11336809D01*
X18589413Y-11327286D01*
X18637032Y-11327286D01*
X18656080Y-11317762D01*
X18722747Y-11270143D02*
X18798937Y-11270143D01*
X18751318Y-11203476D02*
X18751318Y-11374905D01*
X18760842Y-11393952D01*
X18779890Y-11403476D01*
X18798937Y-11403476D01*
X18941794Y-11393952D02*
X18922747Y-11403476D01*
X18884651Y-11403476D01*
X18865604Y-11393952D01*
X18856080Y-11374905D01*
X18856080Y-11298714D01*
X18865604Y-11279667D01*
X18884651Y-11270143D01*
X18922747Y-11270143D01*
X18941794Y-11279667D01*
X18951318Y-11298714D01*
X18951318Y-11317762D01*
X18856080Y-11336809D01*
X19122747Y-11403476D02*
X19122747Y-11203476D01*
X19122747Y-11393952D02*
X19103699Y-11403476D01*
X19065604Y-11403476D01*
X19046556Y-11393952D01*
X19037032Y-11384428D01*
X19027509Y-11365381D01*
X19027509Y-11308238D01*
X19037032Y-11289190D01*
X19046556Y-11279667D01*
X19065604Y-11270143D01*
X19103699Y-11270143D01*
X19122747Y-11279667D01*
X19198937Y-11479667D02*
X19208461Y-11470143D01*
X19227509Y-11441571D01*
X19237032Y-11422524D01*
X19246556Y-11393952D01*
X19256080Y-11346333D01*
X19256080Y-11308238D01*
X19246556Y-11260619D01*
X19237032Y-11232048D01*
X19227509Y-11213000D01*
X19208461Y-11184429D01*
X19198937Y-11174905D01*
D13*
X12446080Y-11577000D02*
G75*
G03*
X12446080Y-11577000I-45000J0D01*
G01*
D11*
X12741794Y-11467476D02*
X12760842Y-11467476D01*
X12779889Y-11477000D01*
X12789413Y-11486524D01*
X12798937Y-11505571D01*
X12808461Y-11543667D01*
X12808461Y-11591286D01*
X12798937Y-11629381D01*
X12789413Y-11648428D01*
X12779889Y-11657952D01*
X12760842Y-11667476D01*
X12741794Y-11667476D01*
X12722747Y-11657952D01*
X12713223Y-11648428D01*
X12703699Y-11629381D01*
X12694175Y-11591286D01*
X12694175Y-11543667D01*
X12703699Y-11505571D01*
X12713223Y-11486524D01*
X12722747Y-11477000D01*
X12741794Y-11467476D01*
X12894175Y-11648428D02*
X12903699Y-11657952D01*
X12894175Y-11667476D01*
X12884651Y-11657952D01*
X12894175Y-11648428D01*
X12894175Y-11667476D01*
X12998937Y-11667476D02*
X13037032Y-11667476D01*
X13056080Y-11657952D01*
X13065604Y-11648428D01*
X13084651Y-11619857D01*
X13094175Y-11581762D01*
X13094175Y-11505571D01*
X13084651Y-11486524D01*
X13075128Y-11477000D01*
X13056080Y-11467476D01*
X13017985Y-11467476D01*
X12998937Y-11477000D01*
X12989413Y-11486524D01*
X12979889Y-11505571D01*
X12979889Y-11553190D01*
X12989413Y-11572238D01*
X12998937Y-11581762D01*
X13017985Y-11591286D01*
X13056080Y-11591286D01*
X13075128Y-11581762D01*
X13084651Y-11572238D01*
X13094175Y-11553190D01*
X13217985Y-11467476D02*
X13237032Y-11467476D01*
X13256080Y-11477000D01*
X13265604Y-11486524D01*
X13275128Y-11505571D01*
X13284651Y-11543667D01*
X13284651Y-11591286D01*
X13275128Y-11629381D01*
X13265604Y-11648428D01*
X13256080Y-11657952D01*
X13237032Y-11667476D01*
X13217985Y-11667476D01*
X13198937Y-11657952D01*
X13189413Y-11648428D01*
X13179889Y-11629381D01*
X13170366Y-11591286D01*
X13170366Y-11543667D01*
X13179889Y-11505571D01*
X13189413Y-11486524D01*
X13198937Y-11477000D01*
X13217985Y-11467476D01*
X13408461Y-11467476D02*
X13427508Y-11467476D01*
X13446556Y-11477000D01*
X13456080Y-11486524D01*
X13465604Y-11505571D01*
X13475128Y-11543667D01*
X13475128Y-11591286D01*
X13465604Y-11629381D01*
X13456080Y-11648428D01*
X13446556Y-11657952D01*
X13427508Y-11667476D01*
X13408461Y-11667476D01*
X13389413Y-11657952D01*
X13379889Y-11648428D01*
X13370366Y-11629381D01*
X13360842Y-11591286D01*
X13360842Y-11543667D01*
X13370366Y-11505571D01*
X13379889Y-11486524D01*
X13389413Y-11477000D01*
X13408461Y-11467476D01*
X13560842Y-11667476D02*
X13560842Y-11534143D01*
X13560842Y-11553190D02*
X13570366Y-11543667D01*
X13589413Y-11534143D01*
X13617985Y-11534143D01*
X13637032Y-11543667D01*
X13646556Y-11562714D01*
X13646556Y-11667476D01*
X13646556Y-11562714D02*
X13656080Y-11543667D01*
X13675128Y-11534143D01*
X13703699Y-11534143D01*
X13722747Y-11543667D01*
X13732270Y-11562714D01*
X13732270Y-11667476D01*
X13827508Y-11667476D02*
X13827508Y-11534143D01*
X13827508Y-11553190D02*
X13837032Y-11543667D01*
X13856080Y-11534143D01*
X13884651Y-11534143D01*
X13903699Y-11543667D01*
X13913223Y-11562714D01*
X13913223Y-11667476D01*
X13913223Y-11562714D02*
X13922747Y-11543667D01*
X13941794Y-11534143D01*
X13970366Y-11534143D01*
X13989413Y-11543667D01*
X13998937Y-11562714D01*
X13998937Y-11667476D01*
X14389413Y-11457952D02*
X14217985Y-11715095D01*
X14646556Y-11467476D02*
X14665604Y-11467476D01*
X14684651Y-11477000D01*
X14694175Y-11486524D01*
X14703699Y-11505571D01*
X14713223Y-11543667D01*
X14713223Y-11591286D01*
X14703699Y-11629381D01*
X14694175Y-11648428D01*
X14684651Y-11657952D01*
X14665604Y-11667476D01*
X14646556Y-11667476D01*
X14627508Y-11657952D01*
X14617985Y-11648428D01*
X14608461Y-11629381D01*
X14598937Y-11591286D01*
X14598937Y-11543667D01*
X14608461Y-11505571D01*
X14617985Y-11486524D01*
X14627508Y-11477000D01*
X14646556Y-11467476D01*
X14798937Y-11648428D02*
X14808461Y-11657952D01*
X14798937Y-11667476D01*
X14789413Y-11657952D01*
X14798937Y-11648428D01*
X14798937Y-11667476D01*
X14932270Y-11467476D02*
X14951318Y-11467476D01*
X14970366Y-11477000D01*
X14979889Y-11486524D01*
X14989413Y-11505571D01*
X14998937Y-11543667D01*
X14998937Y-11591286D01*
X14989413Y-11629381D01*
X14979889Y-11648428D01*
X14970366Y-11657952D01*
X14951318Y-11667476D01*
X14932270Y-11667476D01*
X14913223Y-11657952D01*
X14903699Y-11648428D01*
X14894175Y-11629381D01*
X14884651Y-11591286D01*
X14884651Y-11543667D01*
X14894175Y-11505571D01*
X14903699Y-11486524D01*
X14913223Y-11477000D01*
X14932270Y-11467476D01*
X15065604Y-11467476D02*
X15189413Y-11467476D01*
X15122747Y-11543667D01*
X15151318Y-11543667D01*
X15170366Y-11553190D01*
X15179889Y-11562714D01*
X15189413Y-11581762D01*
X15189413Y-11629381D01*
X15179889Y-11648428D01*
X15170366Y-11657952D01*
X15151318Y-11667476D01*
X15094175Y-11667476D01*
X15075128Y-11657952D01*
X15065604Y-11648428D01*
X15370366Y-11467476D02*
X15275128Y-11467476D01*
X15265604Y-11562714D01*
X15275128Y-11553190D01*
X15294175Y-11543667D01*
X15341794Y-11543667D01*
X15360842Y-11553190D01*
X15370366Y-11562714D01*
X15379889Y-11581762D01*
X15379889Y-11629381D01*
X15370366Y-11648428D01*
X15360842Y-11657952D01*
X15341794Y-11667476D01*
X15294175Y-11667476D01*
X15275128Y-11657952D01*
X15265604Y-11648428D01*
X15551318Y-11534143D02*
X15551318Y-11667476D01*
X15503699Y-11457952D02*
X15456080Y-11600809D01*
X15579889Y-11600809D01*
X15646556Y-11467476D02*
X15646556Y-11505571D01*
X15722747Y-11467476D02*
X15722747Y-11505571D01*
X16017985Y-11743667D02*
X16008461Y-11734143D01*
X15989413Y-11705571D01*
X15979889Y-11686524D01*
X15970366Y-11657952D01*
X15960842Y-11610333D01*
X15960842Y-11572238D01*
X15970366Y-11524619D01*
X15979889Y-11496048D01*
X15989413Y-11477000D01*
X16008461Y-11448428D01*
X16017985Y-11438905D01*
X16084651Y-11486524D02*
X16094175Y-11477000D01*
X16113223Y-11467476D01*
X16160842Y-11467476D01*
X16179889Y-11477000D01*
X16189413Y-11486524D01*
X16198937Y-11505571D01*
X16198937Y-11524619D01*
X16189413Y-11553190D01*
X16075128Y-11667476D01*
X16198937Y-11667476D01*
X16437032Y-11667476D02*
X16437032Y-11467476D01*
X16522747Y-11667476D02*
X16522747Y-11562714D01*
X16513223Y-11543667D01*
X16494175Y-11534143D01*
X16465604Y-11534143D01*
X16446556Y-11543667D01*
X16437032Y-11553190D01*
X16646556Y-11667476D02*
X16627508Y-11657952D01*
X16617985Y-11648428D01*
X16608461Y-11629381D01*
X16608461Y-11572238D01*
X16617985Y-11553190D01*
X16627508Y-11543667D01*
X16646556Y-11534143D01*
X16675128Y-11534143D01*
X16694175Y-11543667D01*
X16703699Y-11553190D01*
X16713223Y-11572238D01*
X16713223Y-11629381D01*
X16703699Y-11648428D01*
X16694175Y-11657952D01*
X16675128Y-11667476D01*
X16646556Y-11667476D01*
X16827509Y-11667476D02*
X16808461Y-11657952D01*
X16798937Y-11638905D01*
X16798937Y-11467476D01*
X16979890Y-11657952D02*
X16960842Y-11667476D01*
X16922747Y-11667476D01*
X16903699Y-11657952D01*
X16894175Y-11638905D01*
X16894175Y-11562714D01*
X16903699Y-11543667D01*
X16922747Y-11534143D01*
X16960842Y-11534143D01*
X16979890Y-11543667D01*
X16989413Y-11562714D01*
X16989413Y-11581762D01*
X16894175Y-11600809D01*
X17065604Y-11657952D02*
X17084651Y-11667476D01*
X17122747Y-11667476D01*
X17141794Y-11657952D01*
X17151318Y-11638905D01*
X17151318Y-11629381D01*
X17141794Y-11610333D01*
X17122747Y-11600809D01*
X17094175Y-11600809D01*
X17075128Y-11591286D01*
X17065604Y-11572238D01*
X17065604Y-11562714D01*
X17075128Y-11543667D01*
X17094175Y-11534143D01*
X17122747Y-11534143D01*
X17141794Y-11543667D01*
X17217985Y-11743667D02*
X17227509Y-11734143D01*
X17246556Y-11705571D01*
X17256080Y-11686524D01*
X17265604Y-11657952D01*
X17275128Y-11610333D01*
X17275128Y-11572238D01*
X17265604Y-11524619D01*
X17256080Y-11496048D01*
X17246556Y-11477000D01*
X17227509Y-11448428D01*
X17217985Y-11438905D01*
X17579890Y-11743667D02*
X17570366Y-11734143D01*
X17551318Y-11705571D01*
X17541794Y-11686524D01*
X17532270Y-11657952D01*
X17522747Y-11610333D01*
X17522747Y-11572238D01*
X17532270Y-11524619D01*
X17541794Y-11496048D01*
X17551318Y-11477000D01*
X17570366Y-11448428D01*
X17579890Y-11438905D01*
X17656080Y-11534143D02*
X17656080Y-11667476D01*
X17656080Y-11553190D02*
X17665604Y-11543667D01*
X17684651Y-11534143D01*
X17713223Y-11534143D01*
X17732270Y-11543667D01*
X17741794Y-11562714D01*
X17741794Y-11667476D01*
X17865604Y-11667476D02*
X17846556Y-11657952D01*
X17837032Y-11648428D01*
X17827509Y-11629381D01*
X17827509Y-11572238D01*
X17837032Y-11553190D01*
X17846556Y-11543667D01*
X17865604Y-11534143D01*
X17894175Y-11534143D01*
X17913223Y-11543667D01*
X17922747Y-11553190D01*
X17932270Y-11572238D01*
X17932270Y-11629381D01*
X17922747Y-11648428D01*
X17913223Y-11657952D01*
X17894175Y-11667476D01*
X17865604Y-11667476D01*
X17989413Y-11534143D02*
X18065604Y-11534143D01*
X18017985Y-11467476D02*
X18017985Y-11638905D01*
X18027509Y-11657952D01*
X18046556Y-11667476D01*
X18065604Y-11667476D01*
X18284651Y-11534143D02*
X18284651Y-11734143D01*
X18284651Y-11543667D02*
X18303699Y-11534143D01*
X18341794Y-11534143D01*
X18360842Y-11543667D01*
X18370366Y-11553190D01*
X18379890Y-11572238D01*
X18379890Y-11629381D01*
X18370366Y-11648428D01*
X18360842Y-11657952D01*
X18341794Y-11667476D01*
X18303699Y-11667476D01*
X18284651Y-11657952D01*
X18494175Y-11667476D02*
X18475128Y-11657952D01*
X18465604Y-11638905D01*
X18465604Y-11467476D01*
X18656080Y-11667476D02*
X18656080Y-11562714D01*
X18646556Y-11543667D01*
X18627509Y-11534143D01*
X18589413Y-11534143D01*
X18570366Y-11543667D01*
X18656080Y-11657952D02*
X18637032Y-11667476D01*
X18589413Y-11667476D01*
X18570366Y-11657952D01*
X18560842Y-11638905D01*
X18560842Y-11619857D01*
X18570366Y-11600809D01*
X18589413Y-11591286D01*
X18637032Y-11591286D01*
X18656080Y-11581762D01*
X18722747Y-11534143D02*
X18798937Y-11534143D01*
X18751318Y-11467476D02*
X18751318Y-11638905D01*
X18760842Y-11657952D01*
X18779890Y-11667476D01*
X18798937Y-11667476D01*
X18941794Y-11657952D02*
X18922747Y-11667476D01*
X18884651Y-11667476D01*
X18865604Y-11657952D01*
X18856080Y-11638905D01*
X18856080Y-11562714D01*
X18865604Y-11543667D01*
X18884651Y-11534143D01*
X18922747Y-11534143D01*
X18941794Y-11543667D01*
X18951318Y-11562714D01*
X18951318Y-11581762D01*
X18856080Y-11600809D01*
X19122747Y-11667476D02*
X19122747Y-11467476D01*
X19122747Y-11657952D02*
X19103699Y-11667476D01*
X19065604Y-11667476D01*
X19046556Y-11657952D01*
X19037032Y-11648428D01*
X19027509Y-11629381D01*
X19027509Y-11572238D01*
X19037032Y-11553190D01*
X19046556Y-11543667D01*
X19065604Y-11534143D01*
X19103699Y-11534143D01*
X19122747Y-11543667D01*
X19198937Y-11743667D02*
X19208461Y-11734143D01*
X19227509Y-11705571D01*
X19237032Y-11686524D01*
X19246556Y-11657952D01*
X19256080Y-11610333D01*
X19256080Y-11572238D01*
X19246556Y-11524619D01*
X19237032Y-11496048D01*
X19227509Y-11477000D01*
X19208461Y-11448428D01*
X19198937Y-11438905D01*
X12346080Y-11741000D02*
X12346080Y-11941000D01*
X12246080Y-11841000D02*
X12446080Y-11841000D01*
X12694175Y-11750524D02*
X12703699Y-11741000D01*
X12722747Y-11731476D01*
X12770366Y-11731476D01*
X12789413Y-11741000D01*
X12798937Y-11750524D01*
X12808461Y-11769571D01*
X12808461Y-11788619D01*
X12798937Y-11817190D01*
X12684651Y-11931476D01*
X12808461Y-11931476D01*
X12894175Y-11912428D02*
X12903699Y-11921952D01*
X12894175Y-11931476D01*
X12884651Y-11921952D01*
X12894175Y-11912428D01*
X12894175Y-11931476D01*
X12979889Y-11750524D02*
X12989413Y-11741000D01*
X13008461Y-11731476D01*
X13056080Y-11731476D01*
X13075128Y-11741000D01*
X13084651Y-11750524D01*
X13094175Y-11769571D01*
X13094175Y-11788619D01*
X13084651Y-11817190D01*
X12970366Y-11931476D01*
X13094175Y-11931476D01*
X13217985Y-11731476D02*
X13237032Y-11731476D01*
X13256080Y-11741000D01*
X13265604Y-11750524D01*
X13275128Y-11769571D01*
X13284651Y-11807667D01*
X13284651Y-11855286D01*
X13275128Y-11893381D01*
X13265604Y-11912428D01*
X13256080Y-11921952D01*
X13237032Y-11931476D01*
X13217985Y-11931476D01*
X13198937Y-11921952D01*
X13189413Y-11912428D01*
X13179889Y-11893381D01*
X13170366Y-11855286D01*
X13170366Y-11807667D01*
X13179889Y-11769571D01*
X13189413Y-11750524D01*
X13198937Y-11741000D01*
X13217985Y-11731476D01*
X13408461Y-11731476D02*
X13427508Y-11731476D01*
X13446556Y-11741000D01*
X13456080Y-11750524D01*
X13465604Y-11769571D01*
X13475128Y-11807667D01*
X13475128Y-11855286D01*
X13465604Y-11893381D01*
X13456080Y-11912428D01*
X13446556Y-11921952D01*
X13427508Y-11931476D01*
X13408461Y-11931476D01*
X13389413Y-11921952D01*
X13379889Y-11912428D01*
X13370366Y-11893381D01*
X13360842Y-11855286D01*
X13360842Y-11807667D01*
X13370366Y-11769571D01*
X13379889Y-11750524D01*
X13389413Y-11741000D01*
X13408461Y-11731476D01*
X13560842Y-11931476D02*
X13560842Y-11798143D01*
X13560842Y-11817190D02*
X13570366Y-11807667D01*
X13589413Y-11798143D01*
X13617985Y-11798143D01*
X13637032Y-11807667D01*
X13646556Y-11826714D01*
X13646556Y-11931476D01*
X13646556Y-11826714D02*
X13656080Y-11807667D01*
X13675128Y-11798143D01*
X13703699Y-11798143D01*
X13722747Y-11807667D01*
X13732270Y-11826714D01*
X13732270Y-11931476D01*
X13827508Y-11931476D02*
X13827508Y-11798143D01*
X13827508Y-11817190D02*
X13837032Y-11807667D01*
X13856080Y-11798143D01*
X13884651Y-11798143D01*
X13903699Y-11807667D01*
X13913223Y-11826714D01*
X13913223Y-11931476D01*
X13913223Y-11826714D02*
X13922747Y-11807667D01*
X13941794Y-11798143D01*
X13970366Y-11798143D01*
X13989413Y-11807667D01*
X13998937Y-11826714D01*
X13998937Y-11931476D01*
X14389413Y-11721952D02*
X14217985Y-11979095D01*
X14646556Y-11731476D02*
X14665604Y-11731476D01*
X14684651Y-11741000D01*
X14694175Y-11750524D01*
X14703699Y-11769571D01*
X14713223Y-11807667D01*
X14713223Y-11855286D01*
X14703699Y-11893381D01*
X14694175Y-11912428D01*
X14684651Y-11921952D01*
X14665604Y-11931476D01*
X14646556Y-11931476D01*
X14627508Y-11921952D01*
X14617985Y-11912428D01*
X14608461Y-11893381D01*
X14598937Y-11855286D01*
X14598937Y-11807667D01*
X14608461Y-11769571D01*
X14617985Y-11750524D01*
X14627508Y-11741000D01*
X14646556Y-11731476D01*
X14798937Y-11912428D02*
X14808461Y-11921952D01*
X14798937Y-11931476D01*
X14789413Y-11921952D01*
X14798937Y-11912428D01*
X14798937Y-11931476D01*
X14932270Y-11731476D02*
X14951318Y-11731476D01*
X14970366Y-11741000D01*
X14979889Y-11750524D01*
X14989413Y-11769571D01*
X14998937Y-11807667D01*
X14998937Y-11855286D01*
X14989413Y-11893381D01*
X14979889Y-11912428D01*
X14970366Y-11921952D01*
X14951318Y-11931476D01*
X14932270Y-11931476D01*
X14913223Y-11921952D01*
X14903699Y-11912428D01*
X14894175Y-11893381D01*
X14884651Y-11855286D01*
X14884651Y-11807667D01*
X14894175Y-11769571D01*
X14903699Y-11750524D01*
X14913223Y-11741000D01*
X14932270Y-11731476D01*
X15113223Y-11817190D02*
X15094175Y-11807667D01*
X15084651Y-11798143D01*
X15075128Y-11779095D01*
X15075128Y-11769571D01*
X15084651Y-11750524D01*
X15094175Y-11741000D01*
X15113223Y-11731476D01*
X15151318Y-11731476D01*
X15170366Y-11741000D01*
X15179889Y-11750524D01*
X15189413Y-11769571D01*
X15189413Y-11779095D01*
X15179889Y-11798143D01*
X15170366Y-11807667D01*
X15151318Y-11817190D01*
X15113223Y-11817190D01*
X15094175Y-11826714D01*
X15084651Y-11836238D01*
X15075128Y-11855286D01*
X15075128Y-11893381D01*
X15084651Y-11912428D01*
X15094175Y-11921952D01*
X15113223Y-11931476D01*
X15151318Y-11931476D01*
X15170366Y-11921952D01*
X15179889Y-11912428D01*
X15189413Y-11893381D01*
X15189413Y-11855286D01*
X15179889Y-11836238D01*
X15170366Y-11826714D01*
X15151318Y-11817190D01*
X15360842Y-11731476D02*
X15322747Y-11731476D01*
X15303699Y-11741000D01*
X15294175Y-11750524D01*
X15275128Y-11779095D01*
X15265604Y-11817190D01*
X15265604Y-11893381D01*
X15275128Y-11912428D01*
X15284651Y-11921952D01*
X15303699Y-11931476D01*
X15341794Y-11931476D01*
X15360842Y-11921952D01*
X15370366Y-11912428D01*
X15379889Y-11893381D01*
X15379889Y-11845762D01*
X15370366Y-11826714D01*
X15360842Y-11817190D01*
X15341794Y-11807667D01*
X15303699Y-11807667D01*
X15284651Y-11817190D01*
X15275128Y-11826714D01*
X15265604Y-11845762D01*
X15551318Y-11731476D02*
X15513223Y-11731476D01*
X15494175Y-11741000D01*
X15484651Y-11750524D01*
X15465604Y-11779095D01*
X15456080Y-11817190D01*
X15456080Y-11893381D01*
X15465604Y-11912428D01*
X15475128Y-11921952D01*
X15494175Y-11931476D01*
X15532270Y-11931476D01*
X15551318Y-11921952D01*
X15560842Y-11912428D01*
X15570366Y-11893381D01*
X15570366Y-11845762D01*
X15560842Y-11826714D01*
X15551318Y-11817190D01*
X15532270Y-11807667D01*
X15494175Y-11807667D01*
X15475128Y-11817190D01*
X15465604Y-11826714D01*
X15456080Y-11845762D01*
X15646556Y-11731476D02*
X15646556Y-11769571D01*
X15722747Y-11731476D02*
X15722747Y-11769571D01*
X16017985Y-12007667D02*
X16008461Y-11998143D01*
X15989413Y-11969571D01*
X15979889Y-11950524D01*
X15970366Y-11921952D01*
X15960842Y-11874333D01*
X15960842Y-11836238D01*
X15970366Y-11788619D01*
X15979889Y-11760048D01*
X15989413Y-11741000D01*
X16008461Y-11712428D01*
X16017985Y-11702905D01*
X16179889Y-11798143D02*
X16179889Y-11931476D01*
X16132270Y-11721952D02*
X16084651Y-11864809D01*
X16208461Y-11864809D01*
X16437032Y-11931476D02*
X16437032Y-11731476D01*
X16522747Y-11931476D02*
X16522747Y-11826714D01*
X16513223Y-11807667D01*
X16494175Y-11798143D01*
X16465604Y-11798143D01*
X16446556Y-11807667D01*
X16437032Y-11817190D01*
X16646556Y-11931476D02*
X16627508Y-11921952D01*
X16617985Y-11912428D01*
X16608461Y-11893381D01*
X16608461Y-11836238D01*
X16617985Y-11817190D01*
X16627508Y-11807667D01*
X16646556Y-11798143D01*
X16675128Y-11798143D01*
X16694175Y-11807667D01*
X16703699Y-11817190D01*
X16713223Y-11836238D01*
X16713223Y-11893381D01*
X16703699Y-11912428D01*
X16694175Y-11921952D01*
X16675128Y-11931476D01*
X16646556Y-11931476D01*
X16827509Y-11931476D02*
X16808461Y-11921952D01*
X16798937Y-11902905D01*
X16798937Y-11731476D01*
X16979890Y-11921952D02*
X16960842Y-11931476D01*
X16922747Y-11931476D01*
X16903699Y-11921952D01*
X16894175Y-11902905D01*
X16894175Y-11826714D01*
X16903699Y-11807667D01*
X16922747Y-11798143D01*
X16960842Y-11798143D01*
X16979890Y-11807667D01*
X16989413Y-11826714D01*
X16989413Y-11845762D01*
X16894175Y-11864809D01*
X17065604Y-11921952D02*
X17084651Y-11931476D01*
X17122747Y-11931476D01*
X17141794Y-11921952D01*
X17151318Y-11902905D01*
X17151318Y-11893381D01*
X17141794Y-11874333D01*
X17122747Y-11864809D01*
X17094175Y-11864809D01*
X17075128Y-11855286D01*
X17065604Y-11836238D01*
X17065604Y-11826714D01*
X17075128Y-11807667D01*
X17094175Y-11798143D01*
X17122747Y-11798143D01*
X17141794Y-11807667D01*
X17217985Y-12007667D02*
X17227509Y-11998143D01*
X17246556Y-11969571D01*
X17256080Y-11950524D01*
X17265604Y-11921952D01*
X17275128Y-11874333D01*
X17275128Y-11836238D01*
X17265604Y-11788619D01*
X17256080Y-11760048D01*
X17246556Y-11741000D01*
X17227509Y-11712428D01*
X17217985Y-11702905D01*
X17579890Y-12007667D02*
X17570366Y-11998143D01*
X17551318Y-11969571D01*
X17541794Y-11950524D01*
X17532270Y-11921952D01*
X17522747Y-11874333D01*
X17522747Y-11836238D01*
X17532270Y-11788619D01*
X17541794Y-11760048D01*
X17551318Y-11741000D01*
X17570366Y-11712428D01*
X17579890Y-11702905D01*
X17656080Y-11798143D02*
X17656080Y-11931476D01*
X17656080Y-11817190D02*
X17665604Y-11807667D01*
X17684651Y-11798143D01*
X17713223Y-11798143D01*
X17732270Y-11807667D01*
X17741794Y-11826714D01*
X17741794Y-11931476D01*
X17865604Y-11931476D02*
X17846556Y-11921952D01*
X17837032Y-11912428D01*
X17827509Y-11893381D01*
X17827509Y-11836238D01*
X17837032Y-11817190D01*
X17846556Y-11807667D01*
X17865604Y-11798143D01*
X17894175Y-11798143D01*
X17913223Y-11807667D01*
X17922747Y-11817190D01*
X17932270Y-11836238D01*
X17932270Y-11893381D01*
X17922747Y-11912428D01*
X17913223Y-11921952D01*
X17894175Y-11931476D01*
X17865604Y-11931476D01*
X17989413Y-11798143D02*
X18065604Y-11798143D01*
X18017985Y-11731476D02*
X18017985Y-11902905D01*
X18027509Y-11921952D01*
X18046556Y-11931476D01*
X18065604Y-11931476D01*
X18284651Y-11798143D02*
X18284651Y-11998143D01*
X18284651Y-11807667D02*
X18303699Y-11798143D01*
X18341794Y-11798143D01*
X18360842Y-11807667D01*
X18370366Y-11817190D01*
X18379890Y-11836238D01*
X18379890Y-11893381D01*
X18370366Y-11912428D01*
X18360842Y-11921952D01*
X18341794Y-11931476D01*
X18303699Y-11931476D01*
X18284651Y-11921952D01*
X18494175Y-11931476D02*
X18475128Y-11921952D01*
X18465604Y-11902905D01*
X18465604Y-11731476D01*
X18656080Y-11931476D02*
X18656080Y-11826714D01*
X18646556Y-11807667D01*
X18627509Y-11798143D01*
X18589413Y-11798143D01*
X18570366Y-11807667D01*
X18656080Y-11921952D02*
X18637032Y-11931476D01*
X18589413Y-11931476D01*
X18570366Y-11921952D01*
X18560842Y-11902905D01*
X18560842Y-11883857D01*
X18570366Y-11864809D01*
X18589413Y-11855286D01*
X18637032Y-11855286D01*
X18656080Y-11845762D01*
X18722747Y-11798143D02*
X18798937Y-11798143D01*
X18751318Y-11731476D02*
X18751318Y-11902905D01*
X18760842Y-11921952D01*
X18779890Y-11931476D01*
X18798937Y-11931476D01*
X18941794Y-11921952D02*
X18922747Y-11931476D01*
X18884651Y-11931476D01*
X18865604Y-11921952D01*
X18856080Y-11902905D01*
X18856080Y-11826714D01*
X18865604Y-11807667D01*
X18884651Y-11798143D01*
X18922747Y-11798143D01*
X18941794Y-11807667D01*
X18951318Y-11826714D01*
X18951318Y-11845762D01*
X18856080Y-11864809D01*
X19122747Y-11931476D02*
X19122747Y-11731476D01*
X19122747Y-11921952D02*
X19103699Y-11931476D01*
X19065604Y-11931476D01*
X19046556Y-11921952D01*
X19037032Y-11912428D01*
X19027509Y-11893381D01*
X19027509Y-11836238D01*
X19037032Y-11817190D01*
X19046556Y-11807667D01*
X19065604Y-11798143D01*
X19103699Y-11798143D01*
X19122747Y-11807667D01*
X19198937Y-12007667D02*
X19208461Y-11998143D01*
X19227509Y-11969571D01*
X19237032Y-11950524D01*
X19246556Y-11921952D01*
X19256080Y-11874333D01*
X19256080Y-11836238D01*
X19246556Y-11788619D01*
X19237032Y-11760048D01*
X19227509Y-11741000D01*
X19208461Y-11712428D01*
X19198937Y-11702905D01*
M02*
