G04 #@! TF.GenerationSoftware,KiCad,Pcbnew,(6.0.6)*
G04 #@! TF.CreationDate,2022-07-13T21:15:31+05:30*
G04 #@! TF.ProjectId,stm32_minimal_dev,73746d33-325f-46d6-996e-696d616c5f64,rev?*
G04 #@! TF.SameCoordinates,Original*
G04 #@! TF.FileFunction,Copper,L1,Top*
G04 #@! TF.FilePolarity,Positive*
%FSLAX46Y46*%
G04 Gerber Fmt 4.6, Leading zero omitted, Abs format (unit mm)*
G04 Created by KiCad (PCBNEW (6.0.6)) date 2022-07-13 21:15:31*
%MOMM*%
%LPD*%
G01*
G04 APERTURE LIST*
G04 Aperture macros list*
%AMRoundRect*
0 Rectangle with rounded corners*
0 $1 Rounding radius*
0 $2 $3 $4 $5 $6 $7 $8 $9 X,Y pos of 4 corners*
0 Add a 4 corners polygon primitive as box body*
4,1,4,$2,$3,$4,$5,$6,$7,$8,$9,$2,$3,0*
0 Add four circle primitives for the rounded corners*
1,1,$1+$1,$2,$3*
1,1,$1+$1,$4,$5*
1,1,$1+$1,$6,$7*
1,1,$1+$1,$8,$9*
0 Add four rect primitives between the rounded corners*
20,1,$1+$1,$2,$3,$4,$5,0*
20,1,$1+$1,$4,$5,$6,$7,0*
20,1,$1+$1,$6,$7,$8,$9,0*
20,1,$1+$1,$8,$9,$2,$3,0*%
G04 Aperture macros list end*
G04 #@! TA.AperFunction,ComponentPad*
%ADD10R,1.700000X1.700000*%
G04 #@! TD*
G04 #@! TA.AperFunction,ComponentPad*
%ADD11O,1.700000X1.700000*%
G04 #@! TD*
G04 #@! TA.AperFunction,SMDPad,CuDef*
%ADD12RoundRect,0.218750X0.218750X0.256250X-0.218750X0.256250X-0.218750X-0.256250X0.218750X-0.256250X0*%
G04 #@! TD*
G04 #@! TA.AperFunction,SMDPad,CuDef*
%ADD13RoundRect,0.250000X-0.250000X-0.475000X0.250000X-0.475000X0.250000X0.475000X-0.250000X0.475000X0*%
G04 #@! TD*
G04 #@! TA.AperFunction,SMDPad,CuDef*
%ADD14RoundRect,0.140000X-0.170000X0.140000X-0.170000X-0.140000X0.170000X-0.140000X0.170000X0.140000X0*%
G04 #@! TD*
G04 #@! TA.AperFunction,SMDPad,CuDef*
%ADD15R,1.350000X0.400000*%
G04 #@! TD*
G04 #@! TA.AperFunction,SMDPad,CuDef*
%ADD16R,1.900000X1.800000*%
G04 #@! TD*
G04 #@! TA.AperFunction,SMDPad,CuDef*
%ADD17R,1.900000X1.900000*%
G04 #@! TD*
G04 #@! TA.AperFunction,SMDPad,CuDef*
%ADD18RoundRect,0.218750X-0.256250X0.218750X-0.256250X-0.218750X0.256250X-0.218750X0.256250X0.218750X0*%
G04 #@! TD*
G04 #@! TA.AperFunction,SMDPad,CuDef*
%ADD19R,1.500000X2.000000*%
G04 #@! TD*
G04 #@! TA.AperFunction,SMDPad,CuDef*
%ADD20R,3.800000X2.000000*%
G04 #@! TD*
G04 #@! TA.AperFunction,SMDPad,CuDef*
%ADD21RoundRect,0.140000X0.140000X0.170000X-0.140000X0.170000X-0.140000X-0.170000X0.140000X-0.170000X0*%
G04 #@! TD*
G04 #@! TA.AperFunction,SMDPad,CuDef*
%ADD22RoundRect,0.250000X0.475000X-0.250000X0.475000X0.250000X-0.475000X0.250000X-0.475000X-0.250000X0*%
G04 #@! TD*
G04 #@! TA.AperFunction,SMDPad,CuDef*
%ADD23RoundRect,0.140000X-0.140000X-0.170000X0.140000X-0.170000X0.140000X0.170000X-0.140000X0.170000X0*%
G04 #@! TD*
G04 #@! TA.AperFunction,SMDPad,CuDef*
%ADD24RoundRect,0.075000X-0.662500X-0.075000X0.662500X-0.075000X0.662500X0.075000X-0.662500X0.075000X0*%
G04 #@! TD*
G04 #@! TA.AperFunction,SMDPad,CuDef*
%ADD25RoundRect,0.075000X-0.075000X-0.662500X0.075000X-0.662500X0.075000X0.662500X-0.075000X0.662500X0*%
G04 #@! TD*
G04 #@! TA.AperFunction,SMDPad,CuDef*
%ADD26R,0.800000X1.000000*%
G04 #@! TD*
G04 #@! TA.AperFunction,SMDPad,CuDef*
%ADD27R,1.500000X0.700000*%
G04 #@! TD*
G04 #@! TA.AperFunction,SMDPad,CuDef*
%ADD28R,1.200000X1.400000*%
G04 #@! TD*
G04 #@! TA.AperFunction,SMDPad,CuDef*
%ADD29RoundRect,0.135000X-0.185000X0.135000X-0.185000X-0.135000X0.185000X-0.135000X0.185000X0.135000X0*%
G04 #@! TD*
G04 #@! TA.AperFunction,SMDPad,CuDef*
%ADD30RoundRect,0.225000X-0.225000X-0.250000X0.225000X-0.250000X0.225000X0.250000X-0.225000X0.250000X0*%
G04 #@! TD*
G04 #@! TA.AperFunction,SMDPad,CuDef*
%ADD31RoundRect,0.135000X0.135000X0.185000X-0.135000X0.185000X-0.135000X-0.185000X0.135000X-0.185000X0*%
G04 #@! TD*
G04 #@! TA.AperFunction,SMDPad,CuDef*
%ADD32RoundRect,0.140000X0.170000X-0.140000X0.170000X0.140000X-0.170000X0.140000X-0.170000X-0.140000X0*%
G04 #@! TD*
G04 #@! TA.AperFunction,SMDPad,CuDef*
%ADD33RoundRect,0.135000X-0.135000X-0.185000X0.135000X-0.185000X0.135000X0.185000X-0.135000X0.185000X0*%
G04 #@! TD*
G04 #@! TA.AperFunction,ViaPad*
%ADD34C,0.800000*%
G04 #@! TD*
G04 #@! TA.AperFunction,Conductor*
%ADD35C,0.250000*%
G04 #@! TD*
G04 #@! TA.AperFunction,Conductor*
%ADD36C,0.300000*%
G04 #@! TD*
G04 #@! TA.AperFunction,Conductor*
%ADD37C,0.500000*%
G04 #@! TD*
G04 #@! TA.AperFunction,Conductor*
%ADD38C,0.200000*%
G04 #@! TD*
G04 APERTURE END LIST*
D10*
X126568200Y-97952800D03*
D11*
X126568200Y-95412800D03*
X126568200Y-92872800D03*
X126568200Y-90332800D03*
X126568200Y-87792800D03*
X126568200Y-85252800D03*
X126568200Y-82712800D03*
X126568200Y-80172800D03*
D12*
X170484900Y-92176600D03*
X168909900Y-92176600D03*
D10*
X131851400Y-104267000D03*
D11*
X134391400Y-104267000D03*
X136931400Y-104267000D03*
X139471400Y-104267000D03*
X142011400Y-104267000D03*
X144551400Y-104267000D03*
X147091400Y-104267000D03*
X149631400Y-104267000D03*
X152171400Y-104267000D03*
X154711400Y-104267000D03*
X157251400Y-104267000D03*
X159791400Y-104267000D03*
X162331400Y-104267000D03*
X164871400Y-104267000D03*
X167411400Y-104267000D03*
X169951400Y-104267000D03*
D13*
X165013600Y-92176600D03*
X166913600Y-92176600D03*
D14*
X165938200Y-82959000D03*
X165938200Y-83919000D03*
D10*
X132156200Y-73355200D03*
D11*
X134696200Y-73355200D03*
X137236200Y-73355200D03*
X139776200Y-73355200D03*
X142316200Y-73355200D03*
X144856200Y-73355200D03*
X147396200Y-73355200D03*
X149936200Y-73355200D03*
X152476200Y-73355200D03*
X155016200Y-73355200D03*
X157556200Y-73355200D03*
X160096200Y-73355200D03*
X162636200Y-73355200D03*
X165176200Y-73355200D03*
X167716200Y-73355200D03*
X170256200Y-73355200D03*
D15*
X171950000Y-85882000D03*
X171950000Y-85232000D03*
X171950000Y-84582000D03*
X171950000Y-83932000D03*
X171950000Y-83282000D03*
D16*
X174625000Y-88582000D03*
D17*
X174625000Y-85782000D03*
X174625000Y-83382000D03*
D16*
X174625000Y-80582000D03*
D18*
X153467600Y-92068200D03*
X153467600Y-93643200D03*
D19*
X169584400Y-94690800D03*
X167284400Y-94690800D03*
D20*
X167284400Y-100990800D03*
D19*
X164984400Y-94690800D03*
D21*
X163294000Y-91694000D03*
X162334000Y-91694000D03*
D22*
X171983400Y-98105000D03*
X171983400Y-96205000D03*
D21*
X151947600Y-93548200D03*
X150987600Y-93548200D03*
D23*
X156898400Y-79806800D03*
X157858400Y-79806800D03*
D14*
X151206200Y-86057800D03*
X151206200Y-87017800D03*
D24*
X155705100Y-83178200D03*
X155705100Y-83678200D03*
X155705100Y-84178200D03*
X155705100Y-84678200D03*
X155705100Y-85178200D03*
X155705100Y-85678200D03*
X155705100Y-86178200D03*
X155705100Y-86678200D03*
X155705100Y-87178200D03*
X155705100Y-87678200D03*
X155705100Y-88178200D03*
X155705100Y-88678200D03*
D25*
X157117600Y-90090700D03*
X157617600Y-90090700D03*
X158117600Y-90090700D03*
X158617600Y-90090700D03*
X159117600Y-90090700D03*
X159617600Y-90090700D03*
X160117600Y-90090700D03*
X160617600Y-90090700D03*
X161117600Y-90090700D03*
X161617600Y-90090700D03*
X162117600Y-90090700D03*
X162617600Y-90090700D03*
D24*
X164030100Y-88678200D03*
X164030100Y-88178200D03*
X164030100Y-87678200D03*
X164030100Y-87178200D03*
X164030100Y-86678200D03*
X164030100Y-86178200D03*
X164030100Y-85678200D03*
X164030100Y-85178200D03*
X164030100Y-84678200D03*
X164030100Y-84178200D03*
X164030100Y-83678200D03*
X164030100Y-83178200D03*
D25*
X162617600Y-81765700D03*
X162117600Y-81765700D03*
X161617600Y-81765700D03*
X161117600Y-81765700D03*
X160617600Y-81765700D03*
X160117600Y-81765700D03*
X159617600Y-81765700D03*
X159117600Y-81765700D03*
X158617600Y-81765700D03*
X158117600Y-81765700D03*
X157617600Y-81765700D03*
X157117600Y-81765700D03*
D26*
X176944000Y-91981000D03*
X174734000Y-99281000D03*
X176944000Y-99281000D03*
X174734000Y-91981000D03*
D27*
X174084000Y-97881000D03*
X174084000Y-94881000D03*
X174084000Y-93381000D03*
D28*
X149542500Y-86266200D03*
X149542500Y-84066200D03*
X147842500Y-84066200D03*
X147842500Y-86266200D03*
D29*
X169748200Y-83589400D03*
X169748200Y-84609400D03*
D30*
X156654200Y-78155800D03*
X158204200Y-78155800D03*
D31*
X175541400Y-90474800D03*
X174521400Y-90474800D03*
X170207400Y-90754200D03*
X169187400Y-90754200D03*
D21*
X152947600Y-95318200D03*
X151987600Y-95318200D03*
D14*
X150977600Y-88470800D03*
X150977600Y-89430800D03*
D31*
X158294800Y-100431600D03*
X157274800Y-100431600D03*
D21*
X151940200Y-92125800D03*
X150980200Y-92125800D03*
D14*
X151206200Y-83873400D03*
X151206200Y-84833400D03*
D32*
X154051000Y-83182400D03*
X154051000Y-82222400D03*
D33*
X159408400Y-100431600D03*
X160428400Y-100431600D03*
D34*
X151053800Y-95808800D03*
X152222200Y-86055200D03*
X147878800Y-87858600D03*
X154051000Y-81229200D03*
X174574200Y-78790800D03*
X159276170Y-78224770D03*
X166903400Y-90678000D03*
X167157400Y-83921600D03*
X151206200Y-83108800D03*
X162116784Y-88903778D03*
X170434000Y-82804000D03*
X170441200Y-89738200D03*
X160959800Y-78308200D03*
X163884223Y-77625823D03*
X173024800Y-90551000D03*
X147447000Y-81026000D03*
X156999054Y-83490300D03*
X153212800Y-79578200D03*
X157926987Y-83861710D03*
X145161000Y-94386400D03*
X158154015Y-88173194D03*
X157226000Y-88544400D03*
X148161623Y-93475423D03*
X150063200Y-92633800D03*
X154330400Y-89687400D03*
X155829000Y-91389200D03*
X147201508Y-93197603D03*
X155986870Y-92766270D03*
X139192000Y-98702300D03*
X143259423Y-99393623D03*
X154498923Y-96358323D03*
X154001603Y-97676855D03*
X140055600Y-102057200D03*
X156365823Y-96091623D03*
X142544800Y-102082600D03*
X157712023Y-95482023D03*
X145389600Y-102082600D03*
X166594812Y-88693012D03*
X151739600Y-101472500D03*
X165760400Y-87943512D03*
X147138777Y-101393377D03*
X135813800Y-90576400D03*
X162840883Y-87674531D03*
X167259000Y-86868000D03*
X142595600Y-88696800D03*
X159800677Y-86888500D03*
X135763000Y-86207600D03*
X162701244Y-85357699D03*
X162179920Y-83693000D03*
X156210000Y-75971400D03*
X151942800Y-77254300D03*
X158307859Y-84785798D03*
X161794577Y-79403823D03*
D35*
X174525000Y-83282000D02*
X174625000Y-83382000D01*
X171950000Y-83282000D02*
X174525000Y-83282000D01*
D36*
X164984400Y-92205800D02*
X165013600Y-92176600D01*
X171950000Y-85882000D02*
X170607200Y-85882000D01*
X170607200Y-85882000D02*
X165013600Y-91475600D01*
D37*
X164984400Y-94690800D02*
X164984400Y-92205800D01*
D36*
X165013600Y-91475600D02*
X165013600Y-92176600D01*
D37*
X154051000Y-82222400D02*
X154051000Y-81229200D01*
D36*
X165910200Y-83947000D02*
X165938200Y-83919000D01*
X174625000Y-88582000D02*
X174625000Y-85782000D01*
X166913600Y-92176600D02*
X167070200Y-92176600D01*
X157858400Y-79606200D02*
X158204200Y-79260400D01*
X151206200Y-83873400D02*
X151206200Y-83108800D01*
X174625000Y-83382000D02*
X174625000Y-80582000D01*
D37*
X147842500Y-86266200D02*
X147842500Y-87822300D01*
D36*
X151206200Y-86057800D02*
X152219600Y-86057800D01*
X150980200Y-89433400D02*
X150977600Y-89430800D01*
X174625000Y-78841600D02*
X174574200Y-78790800D01*
X150980200Y-92125800D02*
X150980200Y-89433400D01*
X167154800Y-83919000D02*
X167157400Y-83921600D01*
X164882000Y-83678200D02*
X165150800Y-83947000D01*
X158204200Y-78155800D02*
X159207200Y-78155800D01*
X166913600Y-90688200D02*
X166903400Y-90678000D01*
X165150800Y-83947000D02*
X165910200Y-83947000D01*
D37*
X169584400Y-94451200D02*
X169584400Y-94690800D01*
D36*
X150980200Y-93540800D02*
X150987600Y-93548200D01*
X159207200Y-78155800D02*
X159276170Y-78224770D01*
D37*
X147842500Y-87822300D02*
X147878800Y-87858600D01*
X167309800Y-92176600D02*
X169584400Y-94451200D01*
D36*
X150987600Y-94318200D02*
X151987600Y-95318200D01*
X162117600Y-90090700D02*
X162117600Y-88904594D01*
X157858400Y-79806800D02*
X157858400Y-79606200D01*
X160150778Y-88903778D02*
X157925200Y-86678200D01*
D37*
X173558200Y-98406800D02*
X174084000Y-97881000D01*
D36*
X164030100Y-83678200D02*
X164882000Y-83678200D01*
X162117600Y-90090700D02*
X162117600Y-91477600D01*
D37*
X169584400Y-94690800D02*
X170469200Y-94690800D01*
X170469200Y-94690800D02*
X171983400Y-96205000D01*
D36*
X169697400Y-91264200D02*
X169187400Y-90754200D01*
D37*
X173558200Y-98956800D02*
X173558200Y-98406800D01*
D36*
X158204200Y-79260400D02*
X158204200Y-78155800D01*
X165938200Y-83919000D02*
X167154800Y-83919000D01*
X174625000Y-85782000D02*
X174625000Y-83382000D01*
X157858400Y-79806800D02*
X157858400Y-80686359D01*
X157858400Y-80686359D02*
X157617600Y-80927159D01*
X162117600Y-91477600D02*
X162334000Y-91694000D01*
X174625000Y-80582000D02*
X174625000Y-78841600D01*
X151013400Y-84066200D02*
X151206200Y-83873400D01*
X149542500Y-84066200D02*
X151013400Y-84066200D01*
X157925200Y-86678200D02*
X155705100Y-86678200D01*
X162116784Y-88903778D02*
X160150778Y-88903778D01*
D37*
X169951400Y-104267000D02*
X169951400Y-102563600D01*
D36*
X169584400Y-94690800D02*
X169697400Y-94577800D01*
X150980200Y-92125800D02*
X150980200Y-93540800D01*
X151544400Y-95318200D02*
X151053800Y-95808800D01*
D37*
X169951400Y-102563600D02*
X173558200Y-98956800D01*
X167070200Y-92176600D02*
X167309800Y-92176600D01*
D36*
X150987600Y-93548200D02*
X150987600Y-94318200D01*
X152219600Y-86057800D02*
X152222200Y-86055200D01*
X169697400Y-94577800D02*
X169697400Y-91264200D01*
X162117600Y-88904594D02*
X162116784Y-88903778D01*
X151987600Y-95318200D02*
X151544400Y-95318200D01*
X166913600Y-92176600D02*
X166913600Y-90688200D01*
X157617600Y-80927159D02*
X157617600Y-81765700D01*
D37*
X168427400Y-90220800D02*
X168427400Y-91694100D01*
X168910000Y-89738200D02*
X168427400Y-90220800D01*
D36*
X173304200Y-96784200D02*
X173304200Y-95901200D01*
X154688600Y-83182400D02*
X154051000Y-83182400D01*
D37*
X174084000Y-93381000D02*
X170441200Y-89738200D01*
D36*
X162617600Y-90913400D02*
X163294000Y-91589800D01*
X156898400Y-79806800D02*
X156898400Y-79530000D01*
X164973000Y-82956400D02*
X165935600Y-82956400D01*
D37*
X172034200Y-99314000D02*
X172034200Y-98155800D01*
D36*
X163294000Y-91589800D02*
X163294000Y-91694000D01*
X159408400Y-100431600D02*
X158294800Y-100431600D01*
D37*
X167284400Y-100990800D02*
X163294000Y-97000400D01*
D36*
X152947600Y-95318200D02*
X152947600Y-94163200D01*
X172034200Y-98155800D02*
X171983400Y-98105000D01*
X164030100Y-83178200D02*
X164751200Y-83178200D01*
X157117600Y-81019200D02*
X157117600Y-81765700D01*
D37*
X167414000Y-82959000D02*
X168044400Y-83589400D01*
X169748200Y-83489800D02*
X170434000Y-82804000D01*
X168427400Y-91694100D02*
X168909900Y-92176600D01*
D36*
X151718943Y-105511600D02*
X159842200Y-105511600D01*
D37*
X168044400Y-83589400D02*
X169748200Y-83589400D01*
X170357400Y-100990800D02*
X172034200Y-99314000D01*
X170441200Y-89738200D02*
X168910000Y-89738200D01*
D36*
X162617600Y-90090700D02*
X162617600Y-90913400D01*
X156898400Y-79806800D02*
X156898400Y-80800000D01*
X156654200Y-79285800D02*
X156654200Y-78155800D01*
X172415200Y-93649800D02*
X172684000Y-93381000D01*
D37*
X159969200Y-76022200D02*
X157988000Y-76022200D01*
D36*
X165935600Y-82956400D02*
X165938200Y-82959000D01*
X154055200Y-83178200D02*
X155705100Y-83178200D01*
D37*
X162636200Y-73355200D02*
X159969200Y-76022200D01*
D36*
X154051000Y-83182400D02*
X154055200Y-83178200D01*
X152947600Y-94163200D02*
X153467600Y-93643200D01*
X158591400Y-101248600D02*
X158591400Y-104764057D01*
X171983400Y-98105000D02*
X173304200Y-96784200D01*
X161086800Y-105511600D02*
X162331400Y-104267000D01*
D37*
X163294000Y-97000400D02*
X163294000Y-91694000D01*
D36*
X172684000Y-93381000D02*
X174084000Y-93381000D01*
D37*
X167284400Y-101854000D02*
X167284400Y-100990800D01*
X164871400Y-104267000D02*
X162331400Y-104267000D01*
D36*
X156898400Y-80800000D02*
X157117600Y-81019200D01*
X155727400Y-82143600D02*
X154688600Y-83182400D01*
X159338943Y-105511600D02*
X159842200Y-105511600D01*
D37*
X169748200Y-83589400D02*
X169748200Y-83489800D01*
D36*
X152947600Y-101793743D02*
X150926800Y-103814543D01*
X150926800Y-103814543D02*
X150926800Y-104719457D01*
D37*
X164871400Y-104267000D02*
X167284400Y-101854000D01*
D36*
X172415200Y-95012200D02*
X172415200Y-93649800D01*
X173304200Y-95901200D02*
X172415200Y-95012200D01*
D37*
X156654200Y-77356000D02*
X156654200Y-78155800D01*
D36*
X150926800Y-104719457D02*
X151718943Y-105511600D01*
D37*
X167284400Y-100990800D02*
X170357400Y-100990800D01*
D36*
X158591400Y-104764057D02*
X159338943Y-105511600D01*
X159842200Y-105511600D02*
X161086800Y-105511600D01*
X152947600Y-95318200D02*
X152947600Y-101793743D01*
D37*
X157988000Y-76022200D02*
X156654200Y-77356000D01*
D36*
X159408400Y-100431600D02*
X158591400Y-101248600D01*
X156898400Y-79530000D02*
X156654200Y-79285800D01*
D37*
X167284400Y-94690800D02*
X167284400Y-100990800D01*
D36*
X156654200Y-78155800D02*
X155727400Y-79082600D01*
X155727400Y-79082600D02*
X155727400Y-82143600D01*
X164751200Y-83178200D02*
X164973000Y-82956400D01*
D37*
X165938200Y-82959000D02*
X167414000Y-82959000D01*
D36*
X150468800Y-85116200D02*
X148592500Y-85116200D01*
X150751600Y-84833400D02*
X150468800Y-85116200D01*
X148592500Y-85116200D02*
X147842500Y-84366200D01*
X147842500Y-84366200D02*
X147842500Y-84066200D01*
X151206200Y-84833400D02*
X150751600Y-84833400D01*
X151206200Y-84833400D02*
X153565800Y-84833400D01*
X153565800Y-84833400D02*
X153910600Y-85178200D01*
X153910600Y-85178200D02*
X155705100Y-85178200D01*
X153220894Y-87017800D02*
X154560494Y-85678200D01*
X149542500Y-86266200D02*
X150294100Y-87017800D01*
X154560494Y-85678200D02*
X155705100Y-85678200D01*
X150294100Y-87017800D02*
X151206200Y-87017800D01*
X151206200Y-87017800D02*
X153220894Y-87017800D01*
X152475000Y-88470800D02*
X154767600Y-86178200D01*
X154767600Y-86178200D02*
X155705100Y-86178200D01*
X150977600Y-88470800D02*
X152475000Y-88470800D01*
X151947600Y-92133200D02*
X151940200Y-92125800D01*
X151947600Y-93548200D02*
X151947600Y-92133200D01*
X151997800Y-92068200D02*
X151940200Y-92125800D01*
X153467600Y-88577159D02*
X153467600Y-92068200D01*
X153467600Y-92068200D02*
X151997800Y-92068200D01*
X154866559Y-87178200D02*
X153467600Y-88577159D01*
X155705100Y-87178200D02*
X154866559Y-87178200D01*
X170207400Y-91899100D02*
X170484900Y-92176600D01*
X170207400Y-90754200D02*
X170207400Y-91899100D01*
X157274800Y-99570000D02*
X157274800Y-100431600D01*
X157274800Y-100431600D02*
X157251400Y-100455000D01*
X161117600Y-90090700D02*
X161117600Y-95727200D01*
X161117600Y-95727200D02*
X157274800Y-99570000D01*
X157251400Y-100455000D02*
X157251400Y-104267000D01*
X160428400Y-100431600D02*
X159791400Y-101068600D01*
X161617600Y-90090700D02*
X161617600Y-99242400D01*
X161617600Y-99242400D02*
X160428400Y-100431600D01*
X159791400Y-101068600D02*
X159791400Y-104267000D01*
X160959800Y-78308200D02*
X159617600Y-79650400D01*
X159617600Y-79650400D02*
X159617600Y-81765700D01*
X162929420Y-83916061D02*
X162929420Y-82792420D01*
X163117600Y-80722400D02*
X167716200Y-76123800D01*
X163117600Y-82604240D02*
X163117600Y-80722400D01*
X162929420Y-82792420D02*
X163117600Y-82604240D01*
X164030100Y-84178200D02*
X163191559Y-84178200D01*
X167716200Y-76123800D02*
X167716200Y-73355200D01*
X163191559Y-84178200D02*
X162929420Y-83916061D01*
X162617600Y-79952400D02*
X165176200Y-77393800D01*
X165176200Y-77393800D02*
X165176200Y-73355200D01*
X162617600Y-81765700D02*
X162617600Y-79952400D01*
D38*
X170113383Y-85179400D02*
X170139583Y-85153200D01*
X164055099Y-85153201D02*
X169356817Y-85153200D01*
X169383017Y-85179400D02*
X170113383Y-85179400D01*
X169356817Y-85153200D02*
X169383017Y-85179400D01*
X170139583Y-85153200D02*
X172059600Y-85153200D01*
X164030100Y-85178200D02*
X164055099Y-85153201D01*
X164030100Y-84678200D02*
X164055099Y-84703199D01*
D36*
X169699400Y-84505800D02*
X169672000Y-84533200D01*
D38*
X164055099Y-84703199D02*
X172059600Y-84703200D01*
D36*
X176530000Y-96088200D02*
X174955200Y-96088200D01*
X177241200Y-95377000D02*
X176530000Y-96088200D01*
X175541400Y-90474800D02*
X175818800Y-90752200D01*
X174084000Y-95217000D02*
X174084000Y-94881000D01*
X175818800Y-92455800D02*
X177241200Y-93878200D01*
X177241200Y-93878200D02*
X177241200Y-95377000D01*
X174955200Y-96088200D02*
X174084000Y-95217000D01*
X175818800Y-90752200D02*
X175818800Y-92455800D01*
X173024800Y-90551000D02*
X174445200Y-90551000D01*
X174445200Y-90551000D02*
X174521400Y-90474800D01*
X162560000Y-76301600D02*
X163884223Y-77625823D01*
X160209800Y-78351094D02*
X160209800Y-77737400D01*
X159117600Y-79443294D02*
X160209800Y-78351094D01*
X159117600Y-81765700D02*
X159117600Y-79443294D01*
X160209800Y-77737400D02*
X161645600Y-76301600D01*
X161645600Y-76301600D02*
X162560000Y-76301600D01*
X156811154Y-83678200D02*
X156999054Y-83490300D01*
X144907000Y-81026000D02*
X137236200Y-73355200D01*
X155705100Y-83678200D02*
X156811154Y-83678200D01*
X147447000Y-81026000D02*
X144907000Y-81026000D01*
X156626293Y-84178200D02*
X155705100Y-84178200D01*
X153212800Y-79578200D02*
X151015000Y-81776000D01*
X151015000Y-81776000D02*
X143117000Y-81776000D01*
X143117000Y-81776000D02*
X134696200Y-73355200D01*
X157548397Y-84240300D02*
X156688393Y-84240300D01*
X157926987Y-83861710D02*
X157548397Y-84240300D01*
X156688393Y-84240300D02*
X156626293Y-84178200D01*
X139496800Y-82372200D02*
X138734800Y-82372200D01*
X151956200Y-82798139D02*
X151516861Y-82358800D01*
X138734800Y-82372200D02*
X132156200Y-75793600D01*
X139510200Y-82358800D02*
X139496800Y-82372200D01*
X151516861Y-82358800D02*
X139510200Y-82358800D01*
X153441400Y-84302600D02*
X151956200Y-82817400D01*
X151956200Y-82817400D02*
X151956200Y-82798139D01*
X154117706Y-84678200D02*
X153742106Y-84302600D01*
X132156200Y-75793600D02*
X132156200Y-73355200D01*
X155705100Y-84678200D02*
X154117706Y-84678200D01*
X153742106Y-84302600D02*
X153441400Y-84302600D01*
X157659021Y-87678200D02*
X155705100Y-87678200D01*
X143764000Y-92989400D02*
X126684800Y-92989400D01*
X145161000Y-94386400D02*
X143764000Y-92989400D01*
X158154015Y-88173194D02*
X157659021Y-87678200D01*
X126684800Y-92989400D02*
X126568200Y-92872800D01*
X156554241Y-88188800D02*
X156543641Y-88178200D01*
X148161623Y-93475423D02*
X146224246Y-95412800D01*
X146224246Y-95412800D02*
X126568200Y-95412800D01*
X156543641Y-88178200D02*
X155705100Y-88178200D01*
X157226000Y-88544400D02*
X156870400Y-88188800D01*
X156870400Y-88188800D02*
X156554241Y-88188800D01*
X155705100Y-88678200D02*
X155339600Y-88678200D01*
X150063200Y-92633800D02*
X144744200Y-97952800D01*
X155339600Y-88678200D02*
X154330400Y-89687400D01*
X144744200Y-97952800D02*
X126568200Y-97952800D01*
X130482400Y-104267000D02*
X131851400Y-104267000D01*
X145145876Y-91672800D02*
X126071143Y-91672800D01*
X125368200Y-99152800D02*
X130482400Y-104267000D01*
X125368200Y-92375743D02*
X125368200Y-99152800D01*
X147201508Y-93728432D02*
X145145876Y-91672800D01*
X157117600Y-90100600D02*
X155829000Y-91389200D01*
X126071143Y-91672800D02*
X125368200Y-92375743D01*
X147201508Y-93197603D02*
X147201508Y-93728432D01*
X157117600Y-90090700D02*
X157117600Y-90100600D01*
X139192000Y-98702300D02*
X139192000Y-99466400D01*
X157617600Y-90090700D02*
X157617600Y-91135540D01*
X157617600Y-91135540D02*
X155986870Y-92766270D01*
X139192000Y-99466400D02*
X134391400Y-104267000D01*
X154584400Y-95228694D02*
X154584400Y-96266000D01*
X154584400Y-96272846D02*
X154498923Y-96358323D01*
X154584400Y-96266000D02*
X154584400Y-96272846D01*
X143259423Y-99393623D02*
X141658516Y-99393623D01*
X136931400Y-104120739D02*
X136931400Y-104267000D01*
X158117600Y-91695494D02*
X154584400Y-95228694D01*
X141658516Y-99393623D02*
X136931400Y-104120739D01*
X158117600Y-90090700D02*
X158117600Y-91695494D01*
X154240345Y-97676855D02*
X155422600Y-96494600D01*
X140055600Y-102057200D02*
X139471400Y-102641400D01*
X158617600Y-91902600D02*
X158617600Y-90090700D01*
X155422600Y-96494600D02*
X155422600Y-95097600D01*
X155422600Y-95097600D02*
X158617600Y-91902600D01*
X139471400Y-102641400D02*
X139471400Y-104267000D01*
X154001603Y-97676855D02*
X154240345Y-97676855D01*
X142544800Y-102082600D02*
X142011400Y-102616000D01*
X156365823Y-95043377D02*
X159117600Y-92291600D01*
X156365823Y-96091623D02*
X156365823Y-95043377D01*
X159117600Y-92291600D02*
X159117600Y-90090700D01*
X142011400Y-102616000D02*
X142011400Y-104267000D01*
X144551400Y-102590600D02*
X144551400Y-104267000D01*
X145389600Y-102082600D02*
X145059400Y-102082600D01*
X157712023Y-95482023D02*
X159617600Y-93576446D01*
X145059400Y-102082600D02*
X144551400Y-102590600D01*
X159617600Y-93576446D02*
X159617600Y-90090700D01*
X152171400Y-104267000D02*
X154211400Y-102227000D01*
X154211400Y-100296600D02*
X160117600Y-94390400D01*
X154211400Y-102227000D02*
X154211400Y-100296600D01*
X160117600Y-94390400D02*
X160117600Y-90090700D01*
X154711400Y-100965000D02*
X154711400Y-104267000D01*
X160617600Y-90090700D02*
X160617600Y-95058800D01*
X160617600Y-95058800D02*
X154711400Y-100965000D01*
X164044912Y-88693012D02*
X164030100Y-88678200D01*
X149631400Y-103580700D02*
X149631400Y-104267000D01*
X151739600Y-101472500D02*
X149631400Y-103580700D01*
X166594812Y-88693012D02*
X164044912Y-88693012D01*
X165760400Y-87943512D02*
X165525712Y-88178200D01*
X165525712Y-88178200D02*
X164030100Y-88178200D01*
X147091400Y-102819200D02*
X147091400Y-104267000D01*
X147138777Y-102771823D02*
X147091400Y-102819200D01*
X147138777Y-101393377D02*
X147138777Y-102771823D01*
X164030100Y-87678200D02*
X162844552Y-87678200D01*
X162844552Y-87678200D02*
X162840883Y-87674531D01*
X126811800Y-90576400D02*
X126568200Y-90332800D01*
X135813800Y-90576400D02*
X126811800Y-90576400D01*
X164030100Y-87178200D02*
X166948800Y-87178200D01*
X127472200Y-88696800D02*
X126568200Y-87792800D01*
X142595600Y-88696800D02*
X127472200Y-88696800D01*
X166948800Y-87178200D02*
X167259000Y-86868000D01*
X127523000Y-86207600D02*
X126568200Y-85252800D01*
X159800677Y-86888500D02*
X160010977Y-86678200D01*
X135763000Y-86207600D02*
X127523000Y-86207600D01*
X160010977Y-86678200D02*
X164030100Y-86678200D01*
X163021745Y-85678200D02*
X164030100Y-85678200D01*
X162701244Y-85357699D02*
X163021745Y-85678200D01*
X162179920Y-83693000D02*
X162117600Y-83630680D01*
X156210000Y-75971400D02*
X155016200Y-74777600D01*
X162117600Y-83630680D02*
X162117600Y-81765700D01*
X155016200Y-74777600D02*
X155016200Y-73355200D01*
X161617600Y-84191341D02*
X161429920Y-84003661D01*
X152476200Y-75539600D02*
X152476200Y-73355200D01*
X151942800Y-77254300D02*
X151942800Y-76073000D01*
X151942800Y-76073000D02*
X152476200Y-75539600D01*
X161429920Y-83382339D02*
X161617600Y-83194659D01*
X159660561Y-86138500D02*
X161617600Y-86138500D01*
X158307859Y-84785798D02*
X159660561Y-86138500D01*
X161617600Y-86138500D02*
X161617600Y-84191341D01*
X161429920Y-84003661D02*
X161429920Y-83382339D01*
X161617600Y-83194659D02*
X161617600Y-81765700D01*
X161640936Y-79403823D02*
X160117600Y-80927159D01*
X161794577Y-79403823D02*
X161640936Y-79403823D01*
X160117600Y-80927159D02*
X160117600Y-81765700D01*
M02*
