G04 #@! TF.GenerationSoftware,KiCad,Pcbnew,(6.0.6)*
G04 #@! TF.CreationDate,2022-07-13T21:15:32+05:30*
G04 #@! TF.ProjectId,stm32_minimal_dev,73746d33-325f-46d6-996e-696d616c5f64,rev?*
G04 #@! TF.SameCoordinates,Original*
G04 #@! TF.FileFunction,Soldermask,Top*
G04 #@! TF.FilePolarity,Negative*
%FSLAX46Y46*%
G04 Gerber Fmt 4.6, Leading zero omitted, Abs format (unit mm)*
G04 Created by KiCad (PCBNEW (6.0.6)) date 2022-07-13 21:15:32*
%MOMM*%
%LPD*%
G01*
G04 APERTURE LIST*
G04 Aperture macros list*
%AMRoundRect*
0 Rectangle with rounded corners*
0 $1 Rounding radius*
0 $2 $3 $4 $5 $6 $7 $8 $9 X,Y pos of 4 corners*
0 Add a 4 corners polygon primitive as box body*
4,1,4,$2,$3,$4,$5,$6,$7,$8,$9,$2,$3,0*
0 Add four circle primitives for the rounded corners*
1,1,$1+$1,$2,$3*
1,1,$1+$1,$4,$5*
1,1,$1+$1,$6,$7*
1,1,$1+$1,$8,$9*
0 Add four rect primitives between the rounded corners*
20,1,$1+$1,$2,$3,$4,$5,0*
20,1,$1+$1,$4,$5,$6,$7,0*
20,1,$1+$1,$6,$7,$8,$9,0*
20,1,$1+$1,$8,$9,$2,$3,0*%
G04 Aperture macros list end*
%ADD10C,2.200000*%
%ADD11R,1.700000X1.700000*%
%ADD12O,1.700000X1.700000*%
%ADD13RoundRect,0.218750X0.218750X0.256250X-0.218750X0.256250X-0.218750X-0.256250X0.218750X-0.256250X0*%
%ADD14RoundRect,0.250000X-0.250000X-0.475000X0.250000X-0.475000X0.250000X0.475000X-0.250000X0.475000X0*%
%ADD15RoundRect,0.140000X-0.170000X0.140000X-0.170000X-0.140000X0.170000X-0.140000X0.170000X0.140000X0*%
%ADD16C,0.700000*%
%ADD17R,1.350000X0.400000*%
%ADD18R,1.900000X1.800000*%
%ADD19R,1.900000X1.900000*%
%ADD20RoundRect,0.218750X-0.256250X0.218750X-0.256250X-0.218750X0.256250X-0.218750X0.256250X0.218750X0*%
%ADD21R,1.500000X2.000000*%
%ADD22R,3.800000X2.000000*%
%ADD23RoundRect,0.140000X0.140000X0.170000X-0.140000X0.170000X-0.140000X-0.170000X0.140000X-0.170000X0*%
%ADD24RoundRect,0.250000X0.475000X-0.250000X0.475000X0.250000X-0.475000X0.250000X-0.475000X-0.250000X0*%
%ADD25RoundRect,0.140000X-0.140000X-0.170000X0.140000X-0.170000X0.140000X0.170000X-0.140000X0.170000X0*%
%ADD26RoundRect,0.075000X-0.662500X-0.075000X0.662500X-0.075000X0.662500X0.075000X-0.662500X0.075000X0*%
%ADD27RoundRect,0.075000X-0.075000X-0.662500X0.075000X-0.662500X0.075000X0.662500X-0.075000X0.662500X0*%
%ADD28R,0.800000X1.000000*%
%ADD29C,0.900000*%
%ADD30R,1.500000X0.700000*%
%ADD31R,1.200000X1.400000*%
%ADD32RoundRect,0.135000X-0.185000X0.135000X-0.185000X-0.135000X0.185000X-0.135000X0.185000X0.135000X0*%
%ADD33RoundRect,0.225000X-0.225000X-0.250000X0.225000X-0.250000X0.225000X0.250000X-0.225000X0.250000X0*%
%ADD34RoundRect,0.135000X0.135000X0.185000X-0.135000X0.185000X-0.135000X-0.185000X0.135000X-0.185000X0*%
%ADD35RoundRect,0.140000X0.170000X-0.140000X0.170000X0.140000X-0.170000X0.140000X-0.170000X-0.140000X0*%
%ADD36RoundRect,0.135000X-0.135000X-0.185000X0.135000X-0.185000X0.135000X0.185000X-0.135000X0.185000X0*%
G04 APERTURE END LIST*
D10*
X127050800Y-73660000D03*
D11*
X126568200Y-97952800D03*
D12*
X126568200Y-95412800D03*
X126568200Y-92872800D03*
X126568200Y-90332800D03*
X126568200Y-87792800D03*
X126568200Y-85252800D03*
X126568200Y-82712800D03*
X126568200Y-80172800D03*
D13*
X170484900Y-92176600D03*
X168909900Y-92176600D03*
D11*
X131851400Y-104267000D03*
D12*
X134391400Y-104267000D03*
X136931400Y-104267000D03*
X139471400Y-104267000D03*
X142011400Y-104267000D03*
X144551400Y-104267000D03*
X147091400Y-104267000D03*
X149631400Y-104267000D03*
X152171400Y-104267000D03*
X154711400Y-104267000D03*
X157251400Y-104267000D03*
X159791400Y-104267000D03*
X162331400Y-104267000D03*
X164871400Y-104267000D03*
X167411400Y-104267000D03*
X169951400Y-104267000D03*
D14*
X165013600Y-92176600D03*
X166913600Y-92176600D03*
D15*
X165938200Y-82959000D03*
X165938200Y-83919000D03*
D11*
X132156200Y-73355200D03*
D12*
X134696200Y-73355200D03*
X137236200Y-73355200D03*
X139776200Y-73355200D03*
X142316200Y-73355200D03*
X144856200Y-73355200D03*
X147396200Y-73355200D03*
X149936200Y-73355200D03*
X152476200Y-73355200D03*
X155016200Y-73355200D03*
X157556200Y-73355200D03*
X160096200Y-73355200D03*
X162636200Y-73355200D03*
X165176200Y-73355200D03*
X167716200Y-73355200D03*
X170256200Y-73355200D03*
D16*
X172175000Y-86657000D03*
X172175000Y-82507000D03*
D17*
X171950000Y-85882000D03*
X171950000Y-85232000D03*
X171950000Y-84582000D03*
X171950000Y-83932000D03*
X171950000Y-83282000D03*
D18*
X174625000Y-88582000D03*
D19*
X174625000Y-85782000D03*
X174625000Y-83382000D03*
D18*
X174625000Y-80582000D03*
D20*
X153467600Y-92068200D03*
X153467600Y-93643200D03*
D21*
X169584400Y-94690800D03*
X167284400Y-94690800D03*
D22*
X167284400Y-100990800D03*
D21*
X164984400Y-94690800D03*
D23*
X163294000Y-91694000D03*
X162334000Y-91694000D03*
D24*
X171983400Y-98105000D03*
X171983400Y-96205000D03*
D23*
X151947600Y-93548200D03*
X150987600Y-93548200D03*
D25*
X156898400Y-79806800D03*
X157858400Y-79806800D03*
D15*
X151206200Y-86057800D03*
X151206200Y-87017800D03*
D26*
X155705100Y-83178200D03*
X155705100Y-83678200D03*
X155705100Y-84178200D03*
X155705100Y-84678200D03*
X155705100Y-85178200D03*
X155705100Y-85678200D03*
X155705100Y-86178200D03*
X155705100Y-86678200D03*
X155705100Y-87178200D03*
X155705100Y-87678200D03*
X155705100Y-88178200D03*
X155705100Y-88678200D03*
D27*
X157117600Y-90090700D03*
X157617600Y-90090700D03*
X158117600Y-90090700D03*
X158617600Y-90090700D03*
X159117600Y-90090700D03*
X159617600Y-90090700D03*
X160117600Y-90090700D03*
X160617600Y-90090700D03*
X161117600Y-90090700D03*
X161617600Y-90090700D03*
X162117600Y-90090700D03*
X162617600Y-90090700D03*
D26*
X164030100Y-88678200D03*
X164030100Y-88178200D03*
X164030100Y-87678200D03*
X164030100Y-87178200D03*
X164030100Y-86678200D03*
X164030100Y-86178200D03*
X164030100Y-85678200D03*
X164030100Y-85178200D03*
X164030100Y-84678200D03*
X164030100Y-84178200D03*
X164030100Y-83678200D03*
X164030100Y-83178200D03*
D27*
X162617600Y-81765700D03*
X162117600Y-81765700D03*
X161617600Y-81765700D03*
X161117600Y-81765700D03*
X160617600Y-81765700D03*
X160117600Y-81765700D03*
X159617600Y-81765700D03*
X159117600Y-81765700D03*
X158617600Y-81765700D03*
X158117600Y-81765700D03*
X157617600Y-81765700D03*
X157117600Y-81765700D03*
D28*
X176944000Y-91981000D03*
X174734000Y-99281000D03*
X176944000Y-99281000D03*
X174734000Y-91981000D03*
D29*
X175844000Y-97131000D03*
X175844000Y-94131000D03*
D30*
X174084000Y-97881000D03*
X174084000Y-94881000D03*
X174084000Y-93381000D03*
D31*
X149542500Y-86266200D03*
X149542500Y-84066200D03*
X147842500Y-84066200D03*
X147842500Y-86266200D03*
D32*
X169748200Y-83589400D03*
X169748200Y-84609400D03*
D33*
X156654200Y-78155800D03*
X158204200Y-78155800D03*
D34*
X175541400Y-90474800D03*
X174521400Y-90474800D03*
X170207400Y-90754200D03*
X169187400Y-90754200D03*
D10*
X127050800Y-104140000D03*
D23*
X152947600Y-95318200D03*
X151987600Y-95318200D03*
D15*
X150977600Y-88470800D03*
X150977600Y-89430800D03*
D34*
X158294800Y-100431600D03*
X157274800Y-100431600D03*
D23*
X151940200Y-92125800D03*
X150980200Y-92125800D03*
D15*
X151206200Y-83873400D03*
X151206200Y-84833400D03*
D35*
X154051000Y-83182400D03*
X154051000Y-82222400D03*
D10*
X175310800Y-73660000D03*
X175310800Y-104140000D03*
D36*
X159408400Y-100431600D03*
X160428400Y-100431600D03*
M02*
